<svg width="900" height="1063" viewBox="0 0 900 1063" fill="none" xmlns="http://www.w3.org/2000/svg">
<g style="mix-blend-mode:overlay">
<path fill-rule="evenodd" clip-rule="evenodd" d="M193.994 397.568C153.194 510.332 16.1377 471.674 79.5509 642.152C142.964 812.63 356.699 862.711 460.686 740.815C564.674 618.92 601.773 560.641 652.971 569.494C704.168 578.348 824.376 574.075 844.743 485.492C865.11 396.909 855.429 340.083 751.944 309.755C648.46 279.427 585.507 297.678 541.427 316.222C497.347 334.767 386.775 159.025 295.084 201.674C203.394 244.324 234.795 284.803 193.994 397.568Z" stroke="url(#paint0_linear_3811_54)" stroke-width="2.5526" style="mix-blend-mode:overlay"/>
<g opacity="0.985714">
<path fill-rule="evenodd" clip-rule="evenodd" d="M196.199 392.377C153.773 504.222 17.4113 462.763 78.2538 634.432C139.096 806.101 351.898 860.557 457.588 740.892C563.278 621.226 601.203 563.752 652.224 573.656C703.244 583.56 823.406 581.77 845.06 493.669C866.715 405.567 857.88 348.58 754.936 316.138C651.993 283.696 588.829 300.635 544.515 318.257C500.202 335.879 392.321 157.976 300.085 198.705C207.849 239.433 238.624 280.533 196.199 392.377Z" stroke="url(#paint1_linear_3811_54)" stroke-width="2.5526" style="mix-blend-mode:overlay"/>
</g>
<g opacity="0.971429">
<path fill-rule="evenodd" clip-rule="evenodd" d="M198.476 387.238C154.44 498.13 18.8131 453.886 77.0694 626.692C135.326 799.497 347.132 858.306 454.491 740.904C561.85 623.501 600.588 566.85 651.416 577.799C702.245 588.749 822.324 589.439 845.258 501.846C868.192 414.252 860.205 357.122 757.833 322.579C655.461 288.035 592.104 303.659 547.571 320.355C503.038 337.051 397.877 157.045 305.124 195.843C212.371 234.64 242.513 276.346 198.476 387.238Z" stroke="url(#paint2_linear_3811_54)" stroke-width="2.5526" style="mix-blend-mode:overlay"/>
</g>
<g opacity="0.957143">
<path fill-rule="evenodd" clip-rule="evenodd" d="M200.828 382.15C155.196 492.057 20.3437 445.047 75.9989 618.933C131.654 792.819 342.402 855.956 451.396 740.85C560.389 625.744 599.928 569.93 650.549 581.921C701.17 593.911 821.13 597.078 845.336 510.018C869.541 422.958 862.403 365.704 760.633 329.073C658.863 292.442 595.333 306.748 550.594 322.514C505.855 338.279 403.444 156.231 310.202 193.088C216.961 229.945 246.46 272.244 200.828 382.15Z" stroke="url(#paint3_linear_3811_54)" stroke-width="2.5526" style="mix-blend-mode:overlay"/>
</g>
<g opacity="0.942857">
<path fill-rule="evenodd" clip-rule="evenodd" d="M203.252 377.117C156.039 486.006 22.002 436.248 75.0422 611.16C128.082 786.072 337.71 853.511 448.304 740.732C558.897 627.954 599.223 572.995 649.622 586.021C700.021 599.047 819.827 604.685 845.294 518.186C870.762 431.686 864.476 374.324 763.337 335.621C662.199 296.917 598.515 309.903 553.583 324.735C508.652 339.567 409.018 155.534 315.317 190.443C221.615 225.351 250.464 268.229 203.252 377.117Z" stroke="url(#paint4_linear_3811_54)" stroke-width="2.5526" style="mix-blend-mode:overlay"/>
</g>
<g opacity="0.928571">
<path fill-rule="evenodd" clip-rule="evenodd" d="M205.747 372.138C156.97 479.976 23.7869 427.49 74.199 603.373C124.611 779.255 333.056 850.968 445.215 740.549C557.373 630.131 598.474 576.042 648.636 590.098C698.797 604.153 818.413 612.258 845.134 526.344C871.855 440.43 866.42 382.98 765.944 342.218C665.467 301.456 601.648 313.12 556.538 327.016C511.428 340.911 414.598 154.954 320.466 187.906C226.333 220.858 254.524 264.3 205.747 372.138Z" stroke="url(#paint5_linear_3811_54)" stroke-width="2.5526" style="mix-blend-mode:overlay"/>
</g>
<g opacity="0.914286">
<path fill-rule="evenodd" clip-rule="evenodd" d="M208.316 367.216C157.991 473.972 25.7008 418.778 73.4726 595.575C121.244 772.371 328.445 848.33 442.133 740.301C555.821 632.273 597.684 579.07 647.593 594.15C697.502 609.229 816.892 619.794 844.857 534.492C872.822 449.19 868.24 391.668 768.454 348.864C668.669 306.06 604.735 316.4 559.46 329.356C514.185 342.312 420.186 154.49 325.651 185.479C231.116 216.467 258.64 260.459 208.316 367.216Z" stroke="url(#paint6_linear_3811_54)" stroke-width="2.5526" style="mix-blend-mode:overlay"/>
</g>
<g opacity="0.9">
<path fill-rule="evenodd" clip-rule="evenodd" d="M210.949 362.352C159.094 467.995 27.7357 410.113 72.8556 587.768C117.975 765.423 323.872 845.598 439.053 739.989C554.234 634.381 596.845 582.079 646.488 598.176C696.13 614.274 815.258 627.291 844.457 542.626C873.656 457.962 869.928 400.386 770.862 355.557C671.797 310.727 607.767 319.742 562.341 331.755C516.915 343.769 425.771 154.144 330.863 183.162C235.954 212.181 262.805 256.709 210.949 362.352Z" stroke="url(#paint7_linear_3811_54)" stroke-width="2.5526" style="mix-blend-mode:overlay"/>
</g>
<g opacity="0.885714">
<path fill-rule="evenodd" clip-rule="evenodd" d="M213.657 357.548C160.288 462.046 29.9001 401.5 72.3576 579.957C114.815 758.414 319.346 842.773 435.984 739.614C552.623 636.455 595.968 585.069 645.329 602.177C694.69 619.286 813.521 634.748 843.944 550.746C874.367 466.744 871.492 409.134 773.175 362.295C674.859 315.456 610.753 323.146 565.19 334.214C519.626 345.283 431.363 153.917 336.11 180.959C240.857 208 267.026 253.049 213.657 357.548Z" stroke="url(#paint8_linear_3811_54)" stroke-width="2.5526" style="mix-blend-mode:overlay"/>
</g>
<g opacity="0.871429">
<path fill-rule="evenodd" clip-rule="evenodd" d="M216.429 352.805C161.564 456.129 32.1851 392.94 71.9704 572.142C111.756 751.345 314.861 839.856 432.92 739.175C550.979 638.494 595.045 588.038 644.11 606.151C693.175 624.264 811.673 642.163 843.309 558.849C874.946 475.534 872.924 417.906 775.386 369.076C677.848 320.246 613.684 326.609 567.997 336.731C522.311 346.853 436.95 153.807 341.382 178.867C245.813 203.926 271.295 249.482 216.429 352.805Z" stroke="url(#paint9_linear_3811_54)" stroke-width="2.5526" style="mix-blend-mode:overlay"/>
</g>
<g opacity="0.857143">
<path fill-rule="evenodd" clip-rule="evenodd" d="M219.27 348.124C162.927 450.242 34.594 384.434 71.6982 564.325C108.802 744.217 310.423 836.848 429.866 738.672C549.308 640.496 594.081 590.983 642.835 610.094C691.59 629.205 809.719 649.532 842.559 566.93C875.398 484.328 874.228 426.7 777.497 375.896C680.765 325.092 616.564 330.129 570.768 339.303C524.971 348.476 442.536 153.813 346.681 176.886C250.826 199.959 275.613 246.006 219.27 348.124Z" stroke="url(#paint10_linear_3811_54)" stroke-width="2.5526" style="mix-blend-mode:overlay"/>
</g>
<g opacity="0.842857">
<path fill-rule="evenodd" clip-rule="evenodd" d="M222.176 343.507C164.374 444.39 37.1247 375.987 71.5398 556.511C105.955 737.034 306.032 833.749 426.82 738.105C547.609 642.461 593.073 593.908 641.503 614.008C689.933 634.109 807.66 656.854 841.69 574.989C875.721 493.124 875.404 435.514 779.507 382.756C683.61 329.997 619.39 333.708 573.498 341.931C527.606 350.155 448.118 153.937 352.006 175.019C255.893 196.1 279.978 242.625 222.176 343.507Z" stroke="url(#paint11_linear_3811_54)" stroke-width="2.5526" style="mix-blend-mode:overlay"/>
</g>
<g opacity="0.828571">
<path fill-rule="evenodd" clip-rule="evenodd" d="M225.146 338.954C165.904 438.571 39.7757 367.599 71.4944 548.698C103.213 729.796 301.688 830.56 423.785 737.474C545.881 644.388 592.023 596.806 640.115 617.89C688.206 638.973 805.494 664.125 840.704 583.022C875.915 501.918 876.449 444.344 781.414 389.65C686.379 334.955 622.16 337.341 576.187 344.614C530.214 351.886 453.692 154.176 357.352 173.263C261.012 192.35 284.389 239.336 225.146 338.954Z" stroke="url(#paint12_linear_3811_54)" stroke-width="2.5526" style="mix-blend-mode:overlay"/>
</g>
<g opacity="0.814286">
<path fill-rule="evenodd" clip-rule="evenodd" d="M228.183 334.468C167.52 432.792 42.5489 359.276 71.5649 540.893C100.581 722.509 297.396 827.284 420.763 736.781C544.129 646.279 590.934 599.683 638.673 621.74C686.411 643.798 803.226 671.347 839.605 591.028C875.983 510.71 877.367 453.19 783.222 396.58C689.077 339.97 624.878 341.031 578.837 347.352C532.796 353.672 459.261 154.534 362.722 171.624C266.183 188.713 288.846 236.145 228.183 334.468Z" stroke="url(#paint13_linear_3811_54)" stroke-width="2.5526" style="mix-blend-mode:overlay"/>
</g>
<g opacity="0.8">
<path fill-rule="evenodd" clip-rule="evenodd" d="M231.28 330.048C169.216 427.049 45.4384 351.016 71.7461 533.093C98.0538 715.171 293.152 823.919 417.75 736.024C542.348 648.129 589.802 602.532 637.173 625.556C684.544 648.579 800.853 678.512 838.386 599.003C875.92 519.494 878.153 462.046 784.925 403.54C691.698 345.034 627.538 344.773 581.443 350.141C535.348 355.509 464.819 155.006 368.11 170.095C271.401 185.184 293.343 233.047 231.28 330.048Z" stroke="url(#paint14_linear_3811_54)" stroke-width="2.5526" style="mix-blend-mode:overlay"/>
</g>
<g opacity="0.785714">
<path fill-rule="evenodd" clip-rule="evenodd" d="M234.441 325.698C170.997 421.348 48.4484 342.824 72.0431 525.306C95.6379 707.787 288.963 820.47 414.753 735.206C540.544 649.942 588.631 605.356 635.621 629.337C682.612 653.319 798.379 685.623 837.056 606.947C875.732 528.27 878.812 470.911 786.528 410.531C694.245 350.15 630.144 348.569 584.009 352.984C537.873 357.399 470.367 155.596 373.518 168.683C276.669 181.77 297.885 230.048 234.441 325.698Z" stroke="url(#paint15_linear_3811_54)" stroke-width="2.5526" style="mix-blend-mode:overlay"/>
</g>
<g opacity="0.771429">
<path fill-rule="evenodd" clip-rule="evenodd" d="M237.663 321.419C172.859 415.69 51.5753 334.704 72.4533 517.532C93.3314 700.36 284.827 816.936 411.771 734.326C538.715 651.716 587.42 608.153 634.016 633.084C680.612 658.014 795.804 692.677 835.61 614.856C875.417 537.035 879.341 479.784 788.028 417.55C696.715 355.315 632.692 352.416 586.531 355.878C540.37 359.34 475.903 156.302 378.943 167.385C281.982 178.469 302.467 227.147 237.663 321.419Z" stroke="url(#paint16_linear_3811_54)" stroke-width="2.5526" style="mix-blend-mode:overlay"/>
</g>
<g opacity="0.757143">
<path fill-rule="evenodd" clip-rule="evenodd" d="M240.944 317.209C174.802 410.075 54.8171 326.654 72.9754 509.772C91.1336 692.89 280.745 813.317 408.803 733.383C536.86 653.449 586.168 610.922 632.357 636.792C678.545 662.663 793.127 699.669 834.05 622.728C874.973 545.786 879.74 488.659 789.424 424.593C699.108 360.527 635.182 356.313 589.009 358.822C542.835 361.332 481.424 157.122 384.381 166.202C287.339 175.281 307.087 224.344 240.944 317.209Z" stroke="url(#paint17_linear_3811_54)" stroke-width="2.5526" style="mix-blend-mode:overlay"/>
</g>
<g opacity="0.742857">
<path fill-rule="evenodd" clip-rule="evenodd" d="M244.283 313.073C176.824 404.506 58.1724 318.681 73.6088 502.031C89.0453 685.381 276.717 809.617 405.849 732.38C534.981 655.143 584.876 613.663 630.643 640.464C676.411 667.265 790.349 706.601 832.375 630.561C874.401 554.521 880.009 497.536 790.716 431.661C701.422 365.786 637.612 360.26 591.44 361.817C545.268 363.374 486.927 158.059 389.831 165.134C292.736 172.21 311.742 221.641 244.283 313.073Z" stroke="url(#paint18_linear_3811_54)" stroke-width="2.5526" style="mix-blend-mode:overlay"/>
</g>
<g opacity="0.728571">
<path fill-rule="evenodd" clip-rule="evenodd" d="M247.681 309.009C178.926 398.983 61.6426 310.783 74.3559 494.308C87.0692 677.833 272.748 805.834 402.914 731.314C533.08 656.794 583.546 616.374 628.879 644.095C674.212 671.817 787.474 713.467 830.59 638.351C873.705 563.235 880.15 506.41 791.905 438.749C703.66 371.088 639.984 364.252 593.828 364.858C547.672 365.464 492.414 159.108 395.295 164.18C298.176 169.252 316.435 219.036 247.681 309.009Z" stroke="url(#paint19_linear_3811_54)" stroke-width="2.5526" style="mix-blend-mode:overlay"/>
</g>
<g opacity="0.714286">
<path fill-rule="evenodd" clip-rule="evenodd" d="M251.135 305.021C181.107 393.51 65.225 302.966 75.2148 486.608C85.2046 670.251 268.838 801.972 399.997 730.189C531.156 658.406 582.178 619.055 627.064 647.688C671.95 676.321 784.502 720.269 828.692 646.098C872.882 571.928 880.161 515.281 792.99 445.857C705.818 376.433 642.296 368.293 596.169 367.949C550.042 367.605 497.881 160.273 400.767 163.343C303.654 166.413 321.163 216.533 251.135 305.021Z" stroke="url(#paint20_linear_3811_54)" stroke-width="2.5526" style="mix-blend-mode:overlay"/>
</g>
<g opacity="0.7">
<path fill-rule="evenodd" clip-rule="evenodd" d="M254.645 301.108C183.367 388.086 68.9185 295.229 76.1852 478.932C83.4519 662.635 264.986 798.03 397.099 729.003C529.211 659.975 580.773 621.705 625.198 651.239C669.624 680.773 781.434 727.001 826.683 653.799C871.933 580.597 880.045 524.143 793.971 452.981C707.898 381.819 644.549 372.378 598.465 371.085C552.381 369.792 503.327 161.551 406.249 162.62C309.17 163.69 325.923 214.131 254.645 301.108Z" stroke="url(#paint21_linear_3811_54)" stroke-width="2.5526" style="mix-blend-mode:overlay"/>
</g>
<g opacity="0.685714">
<path fill-rule="evenodd" clip-rule="evenodd" d="M258.207 297.272C185.702 382.714 72.7199 287.577 77.2648 471.283C81.8097 654.989 261.194 794.012 394.218 727.757C527.243 661.502 579.328 624.324 623.281 654.748C667.233 685.172 778.268 733.664 824.563 661.451C870.858 589.238 879.797 532.997 794.846 460.12C709.895 387.244 646.738 376.507 600.711 374.267C554.684 372.027 508.749 162.942 411.734 162.014C314.719 161.085 330.713 211.83 258.207 297.272Z" stroke="url(#paint22_linear_3811_54)" stroke-width="2.5526" style="mix-blend-mode:overlay"/>
</g>
<g opacity="0.671429">
<path fill-rule="evenodd" clip-rule="evenodd" d="M261.825 293.514C188.115 377.396 76.6316 280.011 78.4568 463.663C80.282 647.316 257.464 789.917 391.36 726.452C525.256 662.987 577.849 626.91 621.315 658.214C664.782 689.519 775.01 740.256 822.335 669.053C869.66 597.851 879.423 541.838 795.619 467.272C711.814 392.707 648.867 380.679 602.911 377.494C556.954 374.309 514.148 164.447 417.226 161.523C320.304 158.599 335.534 209.633 261.825 293.514Z" stroke="url(#paint23_linear_3811_54)" stroke-width="2.5526" style="mix-blend-mode:overlay"/>
</g>
<g opacity="0.657143">
<path fill-rule="evenodd" clip-rule="evenodd" d="M265.492 289.835C190.602 372.133 80.6484 272.533 79.7569 456.074C78.8654 639.616 253.796 785.747 388.522 725.088C523.248 664.429 576.331 629.464 619.3 661.636C662.269 693.809 771.657 746.774 819.996 676.602C868.335 606.431 878.919 550.664 796.285 474.434C713.651 398.205 650.932 384.892 605.06 380.764C559.188 376.636 519.519 166.063 422.719 161.147C325.918 156.232 340.382 207.538 265.492 289.835Z" stroke="url(#paint24_linear_3811_54)" stroke-width="2.5526" style="mix-blend-mode:overlay"/>
</g>
<g opacity="0.642857">
<path fill-rule="evenodd" clip-rule="evenodd" d="M269.21 286.236C193.163 366.925 84.7711 265.144 81.1667 448.518C77.5623 631.892 250.192 781.504 385.706 723.665C521.22 665.827 574.778 631.982 617.236 665.013C659.695 698.044 768.212 753.216 817.55 684.096C866.888 614.975 878.288 559.472 796.847 481.604C715.406 403.737 652.935 389.144 607.161 384.076C561.387 379.008 524.863 167.79 428.213 160.887C331.563 153.984 345.257 205.546 269.21 286.236Z" stroke="url(#paint25_linear_3811_54)" stroke-width="2.5526" style="mix-blend-mode:overlay"/>
</g>
<g opacity="0.628571">
<path fill-rule="evenodd" clip-rule="evenodd" d="M272.978 282.717C195.799 361.776 88.9987 257.849 82.686 440.998C76.3733 624.148 246.653 777.188 382.914 722.185C519.175 667.183 573.19 634.467 615.127 668.344C657.063 702.221 764.678 759.58 814.998 691.532C865.318 623.484 877.529 568.26 797.305 488.781C717.081 409.302 654.875 393.436 609.213 387.43C563.55 381.424 530.178 169.628 433.708 160.742C337.237 151.857 350.157 203.658 272.978 282.717Z" stroke="url(#paint26_linear_3811_54)" stroke-width="2.5526" style="mix-blend-mode:overlay"/>
</g>
<g opacity="0.614286">
<path fill-rule="evenodd" clip-rule="evenodd" d="M276.794 279.281C198.507 356.687 93.3281 250.648 84.3126 433.516C75.2972 616.385 243.179 772.802 380.145 720.648C517.111 668.493 571.567 636.916 612.969 671.628C654.371 706.34 761.052 765.866 812.339 698.909C863.625 631.952 876.643 577.025 797.658 495.961C718.672 414.897 656.751 397.765 611.213 390.824C565.676 383.884 535.462 171.576 439.199 160.713C342.936 149.85 355.08 201.874 276.794 279.281Z" stroke="url(#paint27_linear_3811_54)" stroke-width="2.5526" style="mix-blend-mode:overlay"/>
</g>
<g opacity="0.6">
<path fill-rule="evenodd" clip-rule="evenodd" d="M280.656 275.927C201.287 351.658 97.7585 243.543 86.0466 426.074C74.3347 608.605 239.771 768.346 377.4 719.053C515.029 669.76 569.909 639.33 610.765 674.865C651.622 710.399 757.339 772.07 809.574 706.224C861.81 640.378 875.63 585.765 797.905 503.143C720.181 420.521 658.561 402.129 613.162 394.258C567.763 386.387 540.712 173.634 444.686 160.799C348.66 147.965 360.025 200.196 280.656 275.927Z" stroke="url(#paint28_linear_3811_54)" stroke-width="2.5526" style="mix-blend-mode:overlay"/>
</g>
<g opacity="0.585714">
<path fill-rule="evenodd" clip-rule="evenodd" d="M284.566 272.656C204.14 346.691 102.291 236.536 87.8896 418.673C73.4884 600.811 236.434 763.821 374.684 717.401C512.933 670.981 568.22 641.705 608.519 678.051C648.818 714.397 753.54 778.191 806.708 713.475C859.877 648.758 874.493 594.475 798.051 510.324C721.609 426.172 660.309 406.528 615.062 397.729C569.815 388.93 545.931 175.799 450.17 160.999C354.409 146.2 364.993 198.621 284.566 272.656Z" stroke="url(#paint29_linear_3811_54)" stroke-width="2.5526" style="mix-blend-mode:overlay"/>
</g>
<g opacity="0.571429">
<path fill-rule="evenodd" clip-rule="evenodd" d="M288.518 269.471C207.06 341.788 106.918 229.631 89.8359 411.319C72.7535 593.006 233.162 759.232 371.99 715.695C510.818 672.159 566.495 644.045 606.225 681.189C645.955 718.334 749.653 784.229 803.737 720.661C857.82 657.093 873.227 603.157 798.089 517.503C722.95 431.85 661.989 410.961 616.907 401.238C571.826 391.516 551.11 178.073 455.643 161.316C360.175 144.558 369.976 197.153 288.518 269.471Z" stroke="url(#paint30_linear_3811_54)" stroke-width="2.5526" style="mix-blend-mode:overlay"/>
</g>
<g opacity="0.557143">
<path fill-rule="evenodd" clip-rule="evenodd" d="M292.514 266.37C210.05 336.95 111.644 222.827 91.8886 404.009C72.1337 585.191 229.961 754.576 369.325 713.933C508.689 673.29 564.738 646.346 603.889 684.276C643.039 722.206 745.682 790.179 800.664 727.778C855.645 665.377 871.838 611.804 798.023 524.677C724.209 437.55 663.604 415.424 618.701 404.782C573.798 394.141 556.254 180.453 461.108 161.745C365.962 143.038 374.978 195.79 292.514 266.37Z" stroke="url(#paint31_linear_3811_54)" stroke-width="2.5526" style="mix-blend-mode:overlay"/>
</g>
<g opacity="0.542857">
<path fill-rule="evenodd" clip-rule="evenodd" d="M296.551 263.355C213.107 332.178 116.463 216.128 94.0455 396.748C71.6276 577.368 226.83 749.857 366.688 712.116C506.545 674.376 562.949 648.608 601.509 687.311C640.069 726.015 741.628 796.042 797.49 734.825C853.351 673.609 870.323 620.415 797.853 531.843C725.384 443.272 665.152 419.918 620.441 408.362C575.73 396.805 561.358 182.939 466.561 162.289C371.765 141.64 379.995 194.532 296.551 263.355Z" stroke="url(#paint32_linear_3811_54)" stroke-width="2.5526" style="mix-blend-mode:overlay"/>
</g>
<g opacity="0.528571">
<path fill-rule="evenodd" clip-rule="evenodd" d="M300.629 260.429C216.232 327.475 121.377 209.536 96.3072 389.54C71.237 569.543 223.771 745.077 364.08 710.247C504.388 675.418 561.13 650.833 599.088 690.296C637.046 729.76 737.493 801.817 794.217 741.803C850.94 681.789 868.686 628.989 797.58 539.003C726.475 449.016 666.635 424.443 622.129 411.976C577.623 399.509 566.422 185.531 472.004 162.949C377.585 140.366 385.026 193.382 300.629 260.429Z" stroke="url(#paint33_linear_3811_54)" stroke-width="2.5526" style="mix-blend-mode:overlay"/>
</g>
<g opacity="0.514286">
<path fill-rule="evenodd" clip-rule="evenodd" d="M304.744 257.589C219.42 322.84 126.381 203.051 98.6692 382.383C70.9578 561.714 220.782 740.235 361.499 708.323C502.215 676.412 559.278 653.016 596.624 693.226C633.97 733.437 733.275 807.499 790.843 748.704C848.41 689.909 866.922 637.521 797.201 546.149C727.48 454.777 668.048 428.993 623.76 415.621C579.472 402.249 571.442 188.226 477.429 163.72C383.416 139.214 390.068 192.337 304.744 257.589Z" stroke="url(#paint34_linear_3811_54)" stroke-width="2.5526" style="mix-blend-mode:overlay"/>
</g>
<g opacity="0.5">
<path fill-rule="evenodd" clip-rule="evenodd" d="M308.899 254.837C222.675 318.275 131.476 196.676 101.135 375.28C70.7949 553.885 217.868 735.334 358.95 706.347C500.032 677.359 557.397 655.158 594.121 696.103C630.844 737.047 728.981 813.088 787.373 755.53C845.766 697.971 865.038 646.009 796.72 553.282C728.401 460.555 669.396 433.57 625.339 419.298C581.281 405.026 576.421 191.025 482.841 164.605C389.26 138.185 395.123 191.399 308.899 254.837Z" stroke="url(#paint35_linear_3811_54)" stroke-width="2.5526" style="mix-blend-mode:overlay"/>
</g>
<g opacity="0.485714">
<path fill-rule="evenodd" clip-rule="evenodd" d="M313.089 252.177C225.993 313.784 136.659 190.414 103.702 368.238C70.7458 546.061 215.027 730.378 356.432 704.321C497.837 678.263 555.486 657.262 591.577 698.927C627.669 740.591 724.608 818.585 783.807 762.28C843.006 705.974 863.032 654.454 796.135 560.402C729.238 466.35 670.675 438.175 626.862 423.008C583.049 407.842 581.353 193.928 488.234 165.605C395.114 137.282 400.186 190.57 313.089 252.177Z" stroke="url(#paint36_linear_3811_54)" stroke-width="2.5526" style="mix-blend-mode:overlay"/>
</g>
<g opacity="0.471429">
<path fill-rule="evenodd" clip-rule="evenodd" d="M317.315 249.604C229.373 309.364 141.929 184.264 106.369 361.252C70.8102 538.239 212.261 725.364 353.945 702.241C495.629 679.117 553.546 659.322 588.995 701.693C624.444 744.063 720.159 823.985 780.146 768.948C840.133 713.91 860.905 662.849 795.447 567.502C729.989 472.156 671.886 442.8 628.33 426.745C584.773 410.69 586.239 196.93 493.608 166.715C400.976 136.5 405.257 189.845 317.315 249.604Z" stroke="url(#paint37_linear_3811_54)" stroke-width="2.5526" style="mix-blend-mode:overlay"/>
</g>
<g opacity="0.457143">
<path fill-rule="evenodd" clip-rule="evenodd" d="M321.576 247.123C232.816 305.019 147.284 178.229 109.137 354.327C70.9897 530.425 209.572 720.297 351.493 700.111C493.413 679.926 551.58 661.341 586.376 704.404C621.173 747.466 715.636 829.288 776.392 775.534C837.147 721.781 858.658 671.193 794.657 574.583C730.656 477.974 673.03 447.447 629.743 430.51C586.456 413.572 591.079 200.033 498.962 167.937C406.846 135.842 410.335 189.227 321.576 247.123Z" stroke="url(#paint38_linear_3811_54)" stroke-width="2.5526" style="mix-blend-mode:overlay"/>
</g>
<g opacity="0.442857">
<path fill-rule="evenodd" clip-rule="evenodd" d="M325.866 244.733C236.317 300.749 152.721 172.312 112.001 347.467C71.2808 522.621 206.957 715.177 349.071 697.932C491.185 680.687 549.584 663.317 583.718 707.058C617.853 750.799 711.039 834.492 772.543 782.038C834.048 729.584 856.29 679.484 793.763 581.643C731.236 483.802 674.104 452.116 631.099 434.302C588.094 416.488 595.867 203.235 504.292 169.271C412.717 135.307 415.416 188.717 325.866 244.733Z" stroke="url(#paint39_linear_3811_54)" stroke-width="2.5526" style="mix-blend-mode:overlay"/>
</g>
<g opacity="0.428571">
<path fill-rule="evenodd" clip-rule="evenodd" d="M330.19 242.433C239.879 296.555 158.241 166.511 114.964 340.669C71.6873 514.828 204.42 710.005 346.685 695.703C488.95 681.401 547.562 665.249 581.026 709.653C614.49 754.058 706.372 839.595 768.606 788.455C830.84 737.316 853.806 687.719 792.77 588.678C731.733 489.637 675.11 456.803 632.4 438.119C589.689 419.435 600.606 206.534 509.6 170.714C418.594 134.895 420.501 188.312 330.19 242.433Z" stroke="url(#paint40_linear_3811_54)" stroke-width="2.5526" style="mix-blend-mode:overlay"/>
</g>
<g opacity="0.414286">
<path fill-rule="evenodd" clip-rule="evenodd" d="M334.542 240.227C243.498 292.438 163.839 160.831 118.022 333.94C72.2051 507.049 201.96 704.784 344.333 693.425C486.705 682.067 545.513 667.137 578.297 712.191C611.081 757.245 701.632 844.597 764.577 794.786C827.521 744.974 851.202 695.895 791.672 595.687C732.143 495.478 676.046 461.507 633.642 441.96C591.239 422.414 605.291 209.93 514.88 172.268C424.469 134.606 425.586 188.015 334.542 240.227Z" stroke="url(#paint41_linear_3811_54)" stroke-width="2.5526" style="mix-blend-mode:overlay"/>
</g>
<g opacity="0.4">
<path fill-rule="evenodd" clip-rule="evenodd" d="M338.923 238.112C247.173 288.4 169.515 155.271 121.176 327.279C72.8366 499.287 199.578 699.514 342.016 691.1C484.453 682.685 543.439 668.98 575.534 714.669C607.629 760.357 696.826 849.496 760.46 801.027C824.094 752.557 848.482 704.011 790.475 602.667C732.468 501.323 676.913 466.227 634.829 445.825C592.744 425.422 609.923 213.421 520.133 173.931C430.344 134.441 430.672 187.823 338.923 238.112Z" stroke="url(#paint42_linear_3811_54)" stroke-width="2.5526" style="mix-blend-mode:overlay"/>
</g>
<g opacity="0.385714">
<path fill-rule="evenodd" clip-rule="evenodd" d="M343.33 236.091C250.904 284.443 175.267 149.835 124.423 320.689C73.5801 491.543 197.275 694.2 339.735 688.728C482.194 683.256 541.339 670.78 572.737 717.088C604.135 763.396 691.952 854.291 756.255 807.178C820.559 760.064 845.646 712.065 789.177 609.618C732.707 507.171 677.71 470.963 635.957 449.712C594.204 428.461 614.5 217.008 525.357 175.703C436.215 134.399 435.755 187.739 343.33 236.091Z" stroke="url(#paint43_linear_3811_54)" stroke-width="2.5526" style="mix-blend-mode:overlay"/>
</g>
<g opacity="0.371429">
<path fill-rule="evenodd" clip-rule="evenodd" d="M347.761 234.164C254.688 280.566 181.091 144.523 127.763 314.172C74.4345 483.821 195.051 688.84 337.489 686.31C479.927 683.78 539.214 672.534 569.906 719.446C600.598 766.358 687.011 858.98 751.964 813.236C816.917 767.491 842.695 720.053 787.777 616.536C732.86 513.02 678.436 475.712 637.027 453.619C595.617 431.527 619.019 220.688 530.55 177.584C442.081 134.48 440.834 187.762 347.761 234.164Z" stroke="url(#paint44_linear_3811_54)" stroke-width="2.5526" style="mix-blend-mode:overlay"/>
</g>
<g opacity="0.357143">
<path fill-rule="evenodd" clip-rule="evenodd" d="M352.218 232.333C258.527 276.773 186.989 139.339 131.196 307.732C75.4029 476.124 192.909 683.441 335.283 683.849C477.657 684.258 537.068 674.244 567.046 721.746C597.024 769.248 682.009 863.565 747.59 819.202C813.172 774.839 839.631 727.976 786.28 623.423C732.929 518.871 679.095 480.474 638.041 457.549C596.987 434.624 623.482 224.462 535.712 179.574C447.942 134.686 445.91 187.893 352.218 232.333Z" stroke="url(#paint45_linear_3811_54)" stroke-width="2.5526" style="mix-blend-mode:overlay"/>
</g>
<g opacity="0.342857">
<path fill-rule="evenodd" clip-rule="evenodd" d="M356.699 230.593C262.419 273.06 192.959 134.278 134.721 301.364C76.4833 468.449 190.848 677.996 333.115 681.34C475.383 684.684 534.899 675.905 564.156 723.98C593.412 772.056 676.945 868.038 743.134 825.069C809.324 782.099 836.456 735.825 784.685 630.27C732.914 524.714 679.684 485.244 638.997 461.493C598.31 437.742 627.887 228.322 540.841 181.666C453.795 135.01 450.98 188.126 356.699 230.593Z" stroke="url(#paint46_linear_3811_54)" stroke-width="2.5526" style="mix-blend-mode:overlay"/>
</g>
<g opacity="0.328571">
<path fill-rule="evenodd" clip-rule="evenodd" d="M361.199 228.95C266.358 269.433 198.994 129.349 138.333 295.077C77.6724 460.805 188.866 672.514 330.984 678.789C473.102 685.065 532.707 677.521 561.233 726.155C589.76 774.79 671.818 872.405 738.595 830.841C805.372 789.276 833.167 743.605 782.989 637.081C732.811 530.556 680.201 490.025 639.893 465.457C599.585 440.889 632.23 232.275 545.933 183.867C459.636 135.46 456.04 188.467 361.199 228.95Z" stroke="url(#paint47_linear_3811_54)" stroke-width="2.5526" style="mix-blend-mode:overlay"/>
</g>
<g opacity="0.314286">
<path fill-rule="evenodd" clip-rule="evenodd" d="M365.718 227.403C270.347 265.891 205.096 124.549 142.034 288.87C78.9718 453.191 186.966 666.995 328.892 676.196C470.818 685.397 530.492 679.091 558.282 728.268C586.071 777.444 666.633 876.661 733.976 836.513C801.319 796.365 829.768 751.311 781.196 643.851C732.624 536.391 680.648 494.813 640.73 469.437C600.813 444.061 636.511 236.316 550.988 186.173C465.465 136.031 461.09 188.914 365.718 227.403Z" stroke="url(#paint48_linear_3811_54)" stroke-width="2.5526" style="mix-blend-mode:overlay"/>
</g>
<g opacity="0.3">
<path fill-rule="evenodd" clip-rule="evenodd" d="M370.257 225.95C274.385 262.434 211.263 119.879 145.822 282.743C80.3821 445.608 185.15 661.439 326.841 673.56C468.533 685.681 528.258 680.612 555.303 730.316C582.348 780.02 661.392 880.805 729.28 842.085C797.167 803.364 826.261 758.939 779.307 650.579C732.352 542.218 681.026 499.606 641.51 473.43C601.994 447.255 640.73 240.442 556.006 188.582C471.282 136.722 466.129 189.466 370.257 225.95Z" stroke="url(#paint49_linear_3811_54)" stroke-width="2.5526" style="mix-blend-mode:overlay"/>
</g>
<g opacity="0.285714">
<path fill-rule="evenodd" clip-rule="evenodd" d="M374.813 224.594C278.47 259.064 217.492 115.341 149.697 276.701C81.9016 438.061 183.416 655.849 324.83 670.883C466.245 685.917 526.004 682.085 552.298 732.3C578.592 782.515 656.095 884.836 724.506 847.554C792.918 810.271 822.646 766.489 777.321 657.262C731.996 548.035 681.333 504.404 642.23 477.438C603.128 450.471 644.884 244.654 560.983 191.095C477.082 137.535 471.156 190.123 374.813 224.594Z" stroke="url(#paint50_linear_3811_54)" stroke-width="2.5526" style="mix-blend-mode:overlay"/>
</g>
<g opacity="0.271429">
<path fill-rule="evenodd" clip-rule="evenodd" d="M379.383 223.334C282.598 255.783 223.78 110.938 153.654 270.744C83.5285 430.551 181.764 650.228 322.859 668.167C463.955 686.106 523.729 683.512 549.265 734.222C574.8 784.932 650.743 888.756 719.656 852.921C788.57 817.086 818.923 773.959 775.238 663.9C731.554 553.842 681.569 509.206 642.89 481.458C604.212 453.71 648.972 248.951 565.918 193.711C482.864 138.47 476.168 190.885 379.383 223.334Z" stroke="url(#paint51_linear_3811_54)" stroke-width="2.5526" style="mix-blend-mode:overlay"/>
</g>
<g opacity="0.257143">
<path fill-rule="evenodd" clip-rule="evenodd" d="M383.968 222.17C286.772 252.589 230.128 106.668 157.696 264.874C85.2647 423.079 180.197 644.575 320.931 665.41C461.665 686.246 521.436 684.888 546.208 736.077C570.979 787.266 645.34 892.559 714.734 858.181C784.128 823.804 815.095 781.345 773.062 670.489C731.029 559.634 681.735 514.009 643.492 485.489C605.249 456.968 652.995 253.329 570.811 196.427C488.628 139.524 481.164 191.75 383.968 222.17Z" stroke="url(#paint52_linear_3811_54)" stroke-width="2.5526" style="mix-blend-mode:overlay"/>
</g>
<g opacity="0.242857">
<path fill-rule="evenodd" clip-rule="evenodd" d="M388.567 221.102C290.989 249.485 236.533 102.534 161.821 259.091C87.1092 415.649 178.714 638.893 319.046 662.616C459.377 686.338 519.127 686.216 543.128 737.868C567.128 789.519 639.887 896.247 709.74 863.336C779.593 830.425 811.164 788.646 770.792 677.029C730.42 565.411 681.833 518.812 644.036 489.529C606.239 460.246 656.95 257.789 575.661 199.243C494.372 140.697 486.144 192.72 388.567 221.102Z" stroke="url(#paint53_linear_3811_54)" stroke-width="2.5526" style="mix-blend-mode:overlay"/>
</g>
<g opacity="0.228571">
<path fill-rule="evenodd" clip-rule="evenodd" d="M393.176 220.133C295.247 246.472 242.991 98.5367 166.025 253.4C89.0598 408.264 177.316 633.185 317.202 659.784C457.089 686.383 516.8 687.496 540.024 739.593C563.247 791.691 634.386 899.819 704.675 868.383C774.965 836.947 807.13 795.861 768.429 683.517C729.728 571.173 681.859 523.614 644.519 493.579C607.179 463.543 660.836 262.329 580.465 202.16C500.093 141.991 491.105 193.793 393.176 220.133Z" stroke="url(#paint54_linear_3811_54)" stroke-width="2.5526" style="mix-blend-mode:overlay"/>
</g>
<g opacity="0.214286">
<path fill-rule="evenodd" clip-rule="evenodd" d="M397.793 219.259C299.543 243.548 249.5 94.6763 170.307 247.799C91.1148 400.922 176.001 627.451 315.4 656.915C454.8 686.379 514.454 688.725 536.896 741.252C559.337 793.779 628.836 903.273 699.54 873.32C770.245 843.367 802.992 802.985 765.971 689.95C728.95 576.915 681.813 528.413 644.941 497.635C608.068 466.857 664.651 266.946 585.219 205.174C505.788 143.402 496.043 194.969 397.793 219.259Z" stroke="url(#paint55_linear_3811_54)" stroke-width="2.5526" style="mix-blend-mode:overlay"/>
</g>
<g opacity="0.2">
<path fill-rule="evenodd" clip-rule="evenodd" d="M402.42 218.481C303.879 240.716 256.06 90.9538 174.668 242.291C93.2761 393.629 174.771 621.692 313.643 654.009C452.515 686.327 512.095 689.903 533.748 742.844C555.401 795.784 623.242 906.608 694.339 878.146C765.437 849.683 798.756 810.018 763.423 696.327C728.09 582.636 681.699 533.207 645.305 501.696C608.91 470.186 668.395 271.638 589.927 208.284C511.458 144.931 500.961 196.245 402.42 218.481Z" stroke="url(#paint56_linear_3811_54)" stroke-width="2.5526" style="mix-blend-mode:overlay"/>
</g>
<g opacity="0.185714">
<path fill-rule="evenodd" clip-rule="evenodd" d="M407.055 217.803C308.253 237.979 262.669 87.3735 179.106 236.881C95.5428 386.388 173.628 615.914 311.931 651.072C450.234 686.23 509.721 691.035 530.581 744.371C551.441 797.708 617.605 909.827 689.073 882.863C760.542 855.898 794.422 816.96 760.785 702.649C727.148 588.338 681.516 537.998 645.609 505.766C609.703 473.533 672.068 276.409 594.585 211.494C517.101 146.579 505.856 197.627 407.055 217.803Z" stroke="url(#paint57_linear_3811_54)" stroke-width="2.5526" style="mix-blend-mode:overlay"/>
</g>
<g opacity="0.171429">
<path fill-rule="evenodd" clip-rule="evenodd" d="M411.694 217.219C312.663 235.332 269.324 83.9305 183.618 231.563C97.913 379.196 172.571 610.114 310.264 648.098C447.957 686.082 507.332 692.113 527.394 745.829C547.456 799.544 611.927 912.923 683.744 887.463C755.56 862.003 789.991 823.804 758.057 708.909C726.124 594.014 681.262 542.779 645.854 509.835C610.445 476.891 675.668 281.249 599.191 214.795C522.714 148.341 510.726 199.107 411.694 217.219Z" stroke="url(#paint58_linear_3811_54)" stroke-width="2.5526" style="mix-blend-mode:overlay"/>
</g>
<g opacity="0.157143">
<path fill-rule="evenodd" clip-rule="evenodd" d="M416.335 216.749C317.104 232.795 276.02 80.6451 188.202 226.36C100.384 372.075 171.597 604.311 308.639 645.107C445.681 685.903 504.928 693.157 524.187 747.235C543.445 801.313 606.206 915.915 678.349 891.966C750.492 868.017 785.461 830.568 755.238 715.124C725.015 599.681 680.937 547.568 646.036 513.924C611.136 480.28 679.191 286.179 603.742 218.207C528.293 150.236 515.567 200.703 416.335 216.749Z" stroke="url(#paint59_linear_3811_54)" stroke-width="2.5526" style="mix-blend-mode:overlay"/>
</g>
<g opacity="0.142857">
<path fill-rule="evenodd" clip-rule="evenodd" d="M420.982 216.361C321.581 230.338 282.761 77.4869 192.86 221.241C102.959 364.995 170.711 598.478 307.062 642.07C443.413 685.662 502.514 694.135 520.965 748.559C539.416 802.983 600.451 918.771 672.897 896.339C745.343 873.906 780.839 837.218 752.333 721.262C723.827 605.306 680.544 552.332 646.162 517.999C611.779 483.665 682.641 291.163 608.241 221.697C533.842 152.23 520.383 202.385 420.982 216.361Z" stroke="url(#paint60_linear_3811_54)" stroke-width="2.5526" style="mix-blend-mode:overlay"/>
</g>
<g opacity="0.128571">
<path fill-rule="evenodd" clip-rule="evenodd" d="M425.627 216.07C326.087 227.974 289.539 74.4703 197.586 216.222C105.633 357.973 169.91 592.629 305.529 639.001C441.148 685.374 500.085 695.062 517.724 749.814C535.363 804.566 594.657 921.504 667.384 900.594C740.112 879.684 776.123 843.766 749.339 727.334C722.556 610.902 680.08 557.084 646.225 522.073C612.37 487.061 686.013 296.216 612.683 225.277C539.354 154.339 525.167 204.166 425.627 216.07Z" stroke="url(#paint61_linear_3811_54)" stroke-width="2.5526" style="mix-blend-mode:overlay"/>
</g>
<g opacity="0.114286">
<path fill-rule="evenodd" clip-rule="evenodd" d="M430.274 215.877C330.625 225.708 296.355 71.5984 202.382 211.306C108.408 351.013 169.196 586.769 304.044 635.904C438.892 685.039 497.647 695.939 514.47 751.002C531.293 806.066 588.83 924.116 661.816 904.733C734.802 885.349 771.317 850.213 746.261 733.341C721.206 616.47 679.549 561.825 646.23 526.147C612.912 490.468 689.308 301.336 617.07 228.949C544.831 156.562 529.922 206.046 430.274 215.877Z" stroke="url(#paint62_linear_3811_54)" stroke-width="2.5526" style="mix-blend-mode:overlay"/>
</g>
<g opacity="0.1">
<path fill-rule="evenodd" clip-rule="evenodd" d="M434.919 215.779C335.192 223.536 303.208 68.8684 207.246 206.491C111.283 344.113 168.569 580.895 302.606 632.776C436.643 684.656 495.199 696.762 511.202 752.12C527.206 807.478 582.971 926.604 656.193 908.751C729.415 890.899 766.421 856.554 743.098 739.278C719.775 622.003 678.949 566.549 646.176 530.216C613.404 493.883 692.526 306.52 621.399 232.708C550.271 158.896 534.645 208.022 434.919 215.779Z" stroke="url(#paint63_linear_3811_54)" stroke-width="2.5526" style="mix-blend-mode:overlay"/>
</g>
<g opacity="0.0857143">
<path fill-rule="evenodd" clip-rule="evenodd" d="M439.56 215.779C339.786 221.461 310.093 66.2842 212.175 201.782C114.256 337.279 168.029 575.014 301.215 629.621C434.401 684.228 492.741 697.535 507.921 753.169C523.101 808.804 577.08 928.968 650.516 912.65C723.951 896.333 761.437 862.789 739.851 745.146C718.265 627.504 678.279 571.259 646.062 534.282C613.844 497.306 695.665 311.769 625.668 236.556C555.671 161.342 539.334 210.096 439.56 215.779Z" stroke="url(#paint64_linear_3811_54)" stroke-width="2.5526" style="mix-blend-mode:overlay"/>
</g>
<g opacity="0.0714286">
<path fill-rule="evenodd" clip-rule="evenodd" d="M444.198 215.875C344.407 219.484 317.01 63.8448 217.169 197.178C117.327 330.511 167.576 569.125 299.872 626.439C432.169 683.753 490.274 698.256 504.628 754.15C518.982 810.044 571.162 931.208 644.789 916.429C718.415 901.651 756.368 868.917 736.522 750.943C716.676 632.97 677.543 575.952 645.889 538.344C614.236 500.736 698.724 317.079 629.877 240.489C561.03 163.9 543.989 212.266 444.198 215.875Z" stroke="url(#paint65_linear_3811_54)" stroke-width="2.5526" style="mix-blend-mode:overlay"/>
</g>
<g opacity="0.0571429">
<path fill-rule="evenodd" clip-rule="evenodd" d="M448.827 216.067C349.049 217.603 323.954 61.5507 222.223 192.681C120.492 323.812 167.207 563.23 298.575 623.231C429.943 683.231 487.798 698.925 501.322 755.061C514.847 811.198 565.215 933.323 639.009 920.086C712.803 906.849 751.211 874.934 733.109 756.666C715.007 638.399 676.735 580.625 645.655 542.399C614.574 504.172 701.7 322.449 634.022 244.508C566.344 166.567 548.605 214.532 448.827 216.067Z" stroke="url(#paint66_linear_3811_54)" stroke-width="2.5526" style="mix-blend-mode:overlay"/>
</g>
<g opacity="0.0428571">
<path fill-rule="evenodd" clip-rule="evenodd" d="M453.452 216.357C353.718 215.821 330.927 59.4034 227.341 188.293C123.755 317.183 166.928 557.333 297.329 619.999C427.73 682.664 485.316 699.543 498.009 755.904C510.701 812.265 559.245 935.314 633.184 923.62C707.124 911.927 745.974 880.841 729.618 762.315C713.263 643.79 675.863 585.28 645.364 546.447C614.864 507.613 704.597 327.878 638.107 248.611C571.617 169.343 553.186 216.892 453.452 216.357Z" stroke="url(#paint67_linear_3811_54)" stroke-width="2.5526" style="mix-blend-mode:overlay"/>
</g>
<g opacity="0.0285714">
<path fill-rule="evenodd" clip-rule="evenodd" d="M458.063 216.743C358.428 214.138 337.95 57.4029 232.57 184.015C127.19 310.626 166.805 551.433 296.169 616.742C425.532 682.052 482.818 700.109 494.673 756.677C506.528 813.246 553.225 937.179 627.268 927.032C701.311 916.885 740.582 886.637 725.977 767.89C711.373 649.142 674.865 589.915 644.963 550.487C615.06 511.059 707.344 333.366 642.076 252.797C576.809 172.228 557.698 219.348 458.063 216.743Z" stroke="url(#paint68_linear_3811_54)" stroke-width="2.5526" style="mix-blend-mode:overlay"/>
</g>
<g opacity="0.0142857">
<path fill-rule="evenodd" clip-rule="evenodd" d="M462.671 217.144C363.105 212.472 344.931 55.4282 237.727 179.757C130.523 304.087 166.596 545.537 294.963 613.484C423.33 681.431 480.334 700.664 491.356 757.436C502.378 814.209 547.244 939.02 621.413 930.418C695.582 921.816 735.284 892.405 722.425 773.443C709.566 654.481 673.938 594.539 644.622 554.52C615.306 514.501 710.167 338.856 646.1 256.992C582.033 175.128 562.238 221.815 462.671 217.144Z" stroke="url(#paint69_linear_3811_54)" stroke-width="2.5526" style="mix-blend-mode:overlay"/>
</g>
</g>
<defs>
<linearGradient id="paint0_linear_3811_54" x1="16.1304" y1="694.948" x2="295.527" y2="94.0865" gradientUnits="userSpaceOnUse">
<stop stop-color="#9EE1EC"/>
<stop offset="1" stop-color="#E5A7E0" stop-opacity="0"/>
</linearGradient>
<linearGradient id="paint1_linear_3811_54" x1="14.1125" y1="685.883" x2="304.422" y2="92.3296" gradientUnits="userSpaceOnUse">
<stop stop-color="#9EE1EC"/>
<stop offset="1" stop-color="#E5A7E0" stop-opacity="0"/>
</linearGradient>
<linearGradient id="paint2_linear_3811_54" x1="12.2275" y1="676.784" x2="313.196" y2="90.7451" gradientUnits="userSpaceOnUse">
<stop stop-color="#9EE1EC"/>
<stop offset="1" stop-color="#E5A7E0" stop-opacity="0"/>
</linearGradient>
<linearGradient id="paint3_linear_3811_54" x1="10.4768" y1="667.653" x2="321.847" y2="89.3231" gradientUnits="userSpaceOnUse">
<stop stop-color="#9EE1EC"/>
<stop offset="1" stop-color="#E5A7E0" stop-opacity="0"/>
</linearGradient>
<linearGradient id="paint4_linear_3811_54" x1="8.86035" y1="658.494" x2="330.372" y2="88.0561" gradientUnits="userSpaceOnUse">
<stop stop-color="#9EE1EC"/>
<stop offset="1" stop-color="#E5A7E0" stop-opacity="0"/>
</linearGradient>
<linearGradient id="paint5_linear_3811_54" x1="7.37793" y1="649.309" x2="338.769" y2="86.9332" gradientUnits="userSpaceOnUse">
<stop stop-color="#9EE1EC"/>
<stop offset="1" stop-color="#E5A7E0" stop-opacity="0"/>
</linearGradient>
<linearGradient id="paint6_linear_3811_54" x1="6.0332" y1="640.101" x2="347.039" y2="85.947" gradientUnits="userSpaceOnUse">
<stop stop-color="#9EE1EC"/>
<stop offset="1" stop-color="#E5A7E0" stop-opacity="0"/>
</linearGradient>
<linearGradient id="paint7_linear_3811_54" x1="4.81885" y1="630.873" x2="355.175" y2="85.0888" gradientUnits="userSpaceOnUse">
<stop stop-color="#9EE1EC"/>
<stop offset="1" stop-color="#E5A7E0" stop-opacity="0"/>
</linearGradient>
<linearGradient id="paint8_linear_3811_54" x1="3.74463" y1="621.629" x2="363.186" y2="84.3514" gradientUnits="userSpaceOnUse">
<stop stop-color="#9EE1EC"/>
<stop offset="1" stop-color="#E5A7E0" stop-opacity="0"/>
</linearGradient>
<linearGradient id="paint9_linear_3811_54" x1="2.80249" y1="612.371" x2="371.065" y2="83.7261" gradientUnits="userSpaceOnUse">
<stop stop-color="#9EE1EC"/>
<stop offset="1" stop-color="#E5A7E0" stop-opacity="0"/>
</linearGradient>
<linearGradient id="paint10_linear_3811_54" x1="1.99683" y1="603.1" x2="378.816" y2="83.2035" gradientUnits="userSpaceOnUse">
<stop stop-color="#9EE1EC"/>
<stop offset="1" stop-color="#E5A7E0" stop-opacity="0"/>
</linearGradient>
<linearGradient id="paint11_linear_3811_54" x1="1.32642" y1="593.821" x2="386.439" y2="82.7781" gradientUnits="userSpaceOnUse">
<stop stop-color="#9EE1EC"/>
<stop offset="1" stop-color="#E5A7E0" stop-opacity="0"/>
</linearGradient>
<linearGradient id="paint12_linear_3811_54" x1="0.790771" y1="584.535" x2="393.937" y2="82.4405" gradientUnits="userSpaceOnUse">
<stop stop-color="#9EE1EC"/>
<stop offset="1" stop-color="#E5A7E0" stop-opacity="0"/>
</linearGradient>
<linearGradient id="paint13_linear_3811_54" x1="0.392822" y1="575.247" x2="401.312" y2="82.1869" gradientUnits="userSpaceOnUse">
<stop stop-color="#9EE1EC"/>
<stop offset="1" stop-color="#E5A7E0" stop-opacity="0"/>
</linearGradient>
<linearGradient id="paint14_linear_3811_54" x1="0.127441" y1="565.957" x2="408.564" y2="82.0067" gradientUnits="userSpaceOnUse">
<stop stop-color="#9EE1EC"/>
<stop offset="1" stop-color="#E5A7E0" stop-opacity="0"/>
</linearGradient>
<linearGradient id="paint15_linear_3811_54" x1="0" y1="556.67" x2="415.701" y2="81.8971" gradientUnits="userSpaceOnUse">
<stop stop-color="#9EE1EC"/>
<stop offset="1" stop-color="#E5A7E0" stop-opacity="0"/>
</linearGradient>
<linearGradient id="paint16_linear_3811_54" x1="0.0078125" y1="547.39" x2="422.722" y2="81.8516" gradientUnits="userSpaceOnUse">
<stop stop-color="#9EE1EC"/>
<stop offset="1" stop-color="#E5A7E0" stop-opacity="0"/>
</linearGradient>
<linearGradient id="paint17_linear_3811_54" x1="0.149658" y1="538.116" x2="429.631" y2="81.8634" gradientUnits="userSpaceOnUse">
<stop stop-color="#9EE1EC"/>
<stop offset="1" stop-color="#E5A7E0" stop-opacity="0"/>
</linearGradient>
<linearGradient id="paint18_linear_3811_54" x1="0.425293" y1="528.854" x2="436.43" y2="81.9294" gradientUnits="userSpaceOnUse">
<stop stop-color="#9EE1EC"/>
<stop offset="1" stop-color="#E5A7E0" stop-opacity="0"/>
</linearGradient>
<linearGradient id="paint19_linear_3811_54" x1="0.836914" y1="519.604" x2="443.127" y2="82.0418" gradientUnits="userSpaceOnUse">
<stop stop-color="#9EE1EC"/>
<stop offset="1" stop-color="#E5A7E0" stop-opacity="0"/>
</linearGradient>
<linearGradient id="paint20_linear_3811_54" x1="1.38281" y1="510.372" x2="449.723" y2="82.1996" gradientUnits="userSpaceOnUse">
<stop stop-color="#9EE1EC"/>
<stop offset="1" stop-color="#E5A7E0" stop-opacity="0"/>
</linearGradient>
<linearGradient id="paint21_linear_3811_54" x1="2.06274" y1="501.158" x2="456.223" y2="82.3964" gradientUnits="userSpaceOnUse">
<stop stop-color="#9EE1EC"/>
<stop offset="1" stop-color="#E5A7E0" stop-opacity="0"/>
</linearGradient>
<linearGradient id="paint22_linear_3811_54" x1="2.87451" y1="491.967" x2="462.63" y2="82.6298" gradientUnits="userSpaceOnUse">
<stop stop-color="#9EE1EC"/>
<stop offset="1" stop-color="#E5A7E0" stop-opacity="0"/>
</linearGradient>
<linearGradient id="paint23_linear_3811_54" x1="3.82129" y1="482.8" x2="468.95" y2="82.8969" gradientUnits="userSpaceOnUse">
<stop stop-color="#9EE1EC"/>
<stop offset="1" stop-color="#E5A7E0" stop-opacity="0"/>
</linearGradient>
<linearGradient id="paint24_linear_3811_54" x1="4.89893" y1="473.66" x2="475.186" y2="83.1937" gradientUnits="userSpaceOnUse">
<stop stop-color="#9EE1EC"/>
<stop offset="1" stop-color="#E5A7E0" stop-opacity="0"/>
</linearGradient>
<linearGradient id="paint25_linear_3811_54" x1="6.10889" y1="464.55" x2="481.343" y2="83.5179" gradientUnits="userSpaceOnUse">
<stop stop-color="#9EE1EC"/>
<stop offset="1" stop-color="#E5A7E0" stop-opacity="0"/>
</linearGradient>
<linearGradient id="paint26_linear_3811_54" x1="7.45117" y1="455.472" x2="487.427" y2="83.8681" gradientUnits="userSpaceOnUse">
<stop stop-color="#9EE1EC"/>
<stop offset="1" stop-color="#E5A7E0" stop-opacity="0"/>
</linearGradient>
<linearGradient id="paint27_linear_3811_54" x1="8.92358" y1="446.43" x2="493.44" y2="84.242" gradientUnits="userSpaceOnUse">
<stop stop-color="#9EE1EC"/>
<stop offset="1" stop-color="#E5A7E0" stop-opacity="0"/>
</linearGradient>
<linearGradient id="paint28_linear_3811_54" x1="10.5261" y1="437.427" x2="499.387" y2="84.6385" gradientUnits="userSpaceOnUse">
<stop stop-color="#9EE1EC"/>
<stop offset="1" stop-color="#E5A7E0" stop-opacity="0"/>
</linearGradient>
<linearGradient id="paint29_linear_3811_54" x1="12.2605" y1="428.463" x2="505.276" y2="85.0549" gradientUnits="userSpaceOnUse">
<stop stop-color="#9EE1EC"/>
<stop offset="1" stop-color="#E5A7E0" stop-opacity="0"/>
</linearGradient>
<linearGradient id="paint30_linear_3811_54" x1="14.1211" y1="419.543" x2="511.106" y2="85.4934" gradientUnits="userSpaceOnUse">
<stop stop-color="#9EE1EC"/>
<stop offset="1" stop-color="#E5A7E0" stop-opacity="0"/>
</linearGradient>
<linearGradient id="paint31_linear_3811_54" x1="16.1108" y1="410.669" x2="516.885" y2="85.9505" gradientUnits="userSpaceOnUse">
<stop stop-color="#9EE1EC"/>
<stop offset="1" stop-color="#E5A7E0" stop-opacity="0"/>
</linearGradient>
<linearGradient id="paint32_linear_3811_54" x1="18.2275" y1="401.843" x2="522.616" y2="86.4272" gradientUnits="userSpaceOnUse">
<stop stop-color="#9EE1EC"/>
<stop offset="1" stop-color="#E5A7E0" stop-opacity="0"/>
</linearGradient>
<linearGradient id="paint33_linear_3811_54" x1="20.4719" y1="393.07" x2="528.304" y2="86.925" gradientUnits="userSpaceOnUse">
<stop stop-color="#9EE1EC"/>
<stop offset="1" stop-color="#E5A7E0" stop-opacity="0"/>
</linearGradient>
<linearGradient id="paint34_linear_3811_54" x1="22.8394" y1="384.349" x2="533.951" y2="87.4416" gradientUnits="userSpaceOnUse">
<stop stop-color="#9EE1EC"/>
<stop offset="1" stop-color="#E5A7E0" stop-opacity="0"/>
</linearGradient>
<linearGradient id="paint35_linear_3811_54" x1="25.3337" y1="375.684" x2="539.564" y2="87.9784" gradientUnits="userSpaceOnUse">
<stop stop-color="#9EE1EC"/>
<stop offset="1" stop-color="#E5A7E0" stop-opacity="0"/>
</linearGradient>
<linearGradient id="paint36_linear_3811_54" x1="27.9517" y1="367.081" x2="545.145" y2="88.5392" gradientUnits="userSpaceOnUse">
<stop stop-color="#9EE1EC"/>
<stop offset="1" stop-color="#E5A7E0" stop-opacity="0"/>
</linearGradient>
<linearGradient id="paint37_linear_3811_54" x1="30.6921" y1="358.536" x2="550.699" y2="89.12" gradientUnits="userSpaceOnUse">
<stop stop-color="#9EE1EC"/>
<stop offset="1" stop-color="#E5A7E0" stop-opacity="0"/>
</linearGradient>
<linearGradient id="paint38_linear_3811_54" x1="33.5559" y1="350.056" x2="556.23" y2="89.7251" gradientUnits="userSpaceOnUse">
<stop stop-color="#9EE1EC"/>
<stop offset="1" stop-color="#E5A7E0" stop-opacity="0"/>
</linearGradient>
<linearGradient id="paint39_linear_3811_54" x1="36.5386" y1="341.643" x2="561.739" y2="90.3559" gradientUnits="userSpaceOnUse">
<stop stop-color="#9EE1EC"/>
<stop offset="1" stop-color="#E5A7E0" stop-opacity="0"/>
</linearGradient>
<linearGradient id="paint40_linear_3811_54" x1="39.6431" y1="333.296" x2="567.232" y2="91.012" gradientUnits="userSpaceOnUse">
<stop stop-color="#9EE1EC"/>
<stop offset="1" stop-color="#E5A7E0" stop-opacity="0"/>
</linearGradient>
<linearGradient id="paint41_linear_3811_54" x1="42.8645" y1="325.022" x2="572.71" y2="91.6976" gradientUnits="userSpaceOnUse">
<stop stop-color="#9EE1EC"/>
<stop offset="1" stop-color="#E5A7E0" stop-opacity="0"/>
</linearGradient>
<linearGradient id="paint42_linear_3811_54" x1="46.2043" y1="316.82" x2="578.178" y2="92.4132" gradientUnits="userSpaceOnUse">
<stop stop-color="#9EE1EC"/>
<stop offset="1" stop-color="#E5A7E0" stop-opacity="0"/>
</linearGradient>
<linearGradient id="paint43_linear_3811_54" x1="49.6602" y1="308.695" x2="583.638" y2="93.1626" gradientUnits="userSpaceOnUse">
<stop stop-color="#9EE1EC"/>
<stop offset="1" stop-color="#E5A7E0" stop-opacity="0"/>
</linearGradient>
<linearGradient id="paint44_linear_3811_54" x1="53.23" y1="300.648" x2="589.091" y2="93.9471" gradientUnits="userSpaceOnUse">
<stop stop-color="#9EE1EC"/>
<stop offset="1" stop-color="#E5A7E0" stop-opacity="0"/>
</linearGradient>
<linearGradient id="paint45_linear_3811_54" x1="56.916" y1="292.684" x2="594.544" y2="94.7715" gradientUnits="userSpaceOnUse">
<stop stop-color="#9EE1EC"/>
<stop offset="1" stop-color="#E5A7E0" stop-opacity="0"/>
</linearGradient>
<linearGradient id="paint46_linear_3811_54" x1="60.7153" y1="284.798" x2="599.997" y2="95.6324" gradientUnits="userSpaceOnUse">
<stop stop-color="#9EE1EC"/>
<stop offset="1" stop-color="#E5A7E0" stop-opacity="0"/>
</linearGradient>
<linearGradient id="paint47_linear_3811_54" x1="64.624" y1="277" x2="605.45" y2="96.5391" gradientUnits="userSpaceOnUse">
<stop stop-color="#9EE1EC"/>
<stop offset="1" stop-color="#E5A7E0" stop-opacity="0"/>
</linearGradient>
<linearGradient id="paint48_linear_3811_54" x1="68.6426" y1="269.29" x2="610.907" y2="97.4916" gradientUnits="userSpaceOnUse">
<stop stop-color="#9EE1EC"/>
<stop offset="1" stop-color="#E5A7E0" stop-opacity="0"/>
</linearGradient>
<linearGradient id="paint49_linear_3811_54" x1="72.771" y1="261.667" x2="616.372" y2="98.4921" gradientUnits="userSpaceOnUse">
<stop stop-color="#9EE1EC"/>
<stop offset="1" stop-color="#E5A7E0" stop-opacity="0"/>
</linearGradient>
<linearGradient id="paint50_linear_3811_54" x1="77.0066" y1="254.137" x2="621.843" y2="99.5449" gradientUnits="userSpaceOnUse">
<stop stop-color="#9EE1EC"/>
<stop offset="1" stop-color="#E5A7E0" stop-opacity="0"/>
</linearGradient>
<linearGradient id="paint51_linear_3811_54" x1="81.3467" y1="246.702" x2="627.322" y2="100.654" gradientUnits="userSpaceOnUse">
<stop stop-color="#9EE1EC"/>
<stop offset="1" stop-color="#E5A7E0" stop-opacity="0"/>
</linearGradient>
<linearGradient id="paint52_linear_3811_54" x1="85.7925" y1="239.361" x2="632.813" y2="101.82" gradientUnits="userSpaceOnUse">
<stop stop-color="#9EE1EC"/>
<stop offset="1" stop-color="#E5A7E0" stop-opacity="0"/>
</linearGradient>
<linearGradient id="paint53_linear_3811_54" x1="90.342" y1="232.118" x2="638.317" y2="103.047" gradientUnits="userSpaceOnUse">
<stop stop-color="#9EE1EC"/>
<stop offset="1" stop-color="#E5A7E0" stop-opacity="0"/>
</linearGradient>
<linearGradient id="paint54_linear_3811_54" x1="94.9924" y1="224.976" x2="643.832" y2="104.34" gradientUnits="userSpaceOnUse">
<stop stop-color="#9EE1EC"/>
<stop offset="1" stop-color="#E5A7E0" stop-opacity="0"/>
</linearGradient>
<linearGradient id="paint55_linear_3811_54" x1="99.741" y1="217.934" x2="649.359" y2="105.701" gradientUnits="userSpaceOnUse">
<stop stop-color="#9EE1EC"/>
<stop offset="1" stop-color="#E5A7E0" stop-opacity="0"/>
</linearGradient>
<linearGradient id="paint56_linear_3811_54" x1="104.589" y1="210.996" x2="654.901" y2="107.132" gradientUnits="userSpaceOnUse">
<stop stop-color="#9EE1EC"/>
<stop offset="1" stop-color="#E5A7E0" stop-opacity="0"/>
</linearGradient>
<linearGradient id="paint57_linear_3811_54" x1="109.534" y1="204.167" x2="660.458" y2="108.641" gradientUnits="userSpaceOnUse">
<stop stop-color="#9EE1EC"/>
<stop offset="1" stop-color="#E5A7E0" stop-opacity="0"/>
</linearGradient>
<linearGradient id="paint58_linear_3811_54" x1="114.575" y1="197.442" x2="666.029" y2="110.225" gradientUnits="userSpaceOnUse">
<stop stop-color="#9EE1EC"/>
<stop offset="1" stop-color="#E5A7E0" stop-opacity="0"/>
</linearGradient>
<linearGradient id="paint59_linear_3811_54" x1="119.706" y1="190.844" x2="671.613" y2="111.908" gradientUnits="userSpaceOnUse">
<stop stop-color="#9EE1EC"/>
<stop offset="1" stop-color="#E5A7E0" stop-opacity="0"/>
</linearGradient>
<linearGradient id="paint60_linear_3811_54" x1="124.932" y1="184.342" x2="677.214" y2="113.662" gradientUnits="userSpaceOnUse">
<stop stop-color="#9EE1EC"/>
<stop offset="1" stop-color="#E5A7E0" stop-opacity="0"/>
</linearGradient>
<linearGradient id="paint61_linear_3811_54" x1="130.245" y1="177.953" x2="682.827" y2="115.504" gradientUnits="userSpaceOnUse">
<stop stop-color="#9EE1EC"/>
<stop offset="1" stop-color="#E5A7E0" stop-opacity="0"/>
</linearGradient>
<linearGradient id="paint62_linear_3811_54" x1="135.648" y1="171.68" x2="688.456" y2="117.44" gradientUnits="userSpaceOnUse">
<stop stop-color="#9EE1EC"/>
<stop offset="1" stop-color="#E5A7E0" stop-opacity="0"/>
</linearGradient>
<linearGradient id="paint63_linear_3811_54" x1="141.138" y1="165.522" x2="694.098" y2="119.47" gradientUnits="userSpaceOnUse">
<stop stop-color="#9EE1EC"/>
<stop offset="1" stop-color="#E5A7E0" stop-opacity="0"/>
</linearGradient>
<linearGradient id="paint64_linear_3811_54" x1="146.713" y1="159.483" x2="699.752" y2="121.6" gradientUnits="userSpaceOnUse">
<stop stop-color="#9EE1EC"/>
<stop offset="1" stop-color="#E5A7E0" stop-opacity="0"/>
</linearGradient>
<linearGradient id="paint65_linear_3811_54" x1="152.371" y1="153.564" x2="705.419" y2="123.834" gradientUnits="userSpaceOnUse">
<stop stop-color="#9EE1EC"/>
<stop offset="1" stop-color="#E5A7E0" stop-opacity="0"/>
</linearGradient>
<linearGradient id="paint66_linear_3811_54" x1="158.108" y1="147.767" x2="711.094" y2="126.173" gradientUnits="userSpaceOnUse">
<stop stop-color="#9EE1EC"/>
<stop offset="1" stop-color="#E5A7E0" stop-opacity="0"/>
</linearGradient>
<linearGradient id="paint67_linear_3811_54" x1="163.927" y1="142.094" x2="716.781" y2="128.623" gradientUnits="userSpaceOnUse">
<stop stop-color="#9EE1EC"/>
<stop offset="1" stop-color="#E5A7E0" stop-opacity="0"/>
</linearGradient>
<linearGradient id="paint68_linear_3811_54" x1="169.891" y1="136.545" x2="722.403" y2="131.188" gradientUnits="userSpaceOnUse">
<stop stop-color="#9EE1EC"/>
<stop offset="1" stop-color="#E5A7E0" stop-opacity="0"/>
</linearGradient>
<linearGradient id="paint69_linear_3811_54" x1="175.762" y1="131.022" x2="728.202" y2="133.767" gradientUnits="userSpaceOnUse">
<stop stop-color="#9EE1EC"/>
<stop offset="1" stop-color="#E5A7E0" stop-opacity="0"/>
</linearGradient>
</defs>
</svg>
