<svg width="24" height="30" viewBox="0 0 24 30" fill="none" xmlns="http://www.w3.org/2000/svg">
<path d="M23.4839 27.6524C23.4839 28.9502 18.2264 30 11.7423 30C5.25747 30 0 28.9502 0 27.6524C0 26.3546 5.2568 25.3032 11.7423 25.3032C18.2264 25.3032 23.4839 26.3546 23.4839 27.6524Z" fill="url(#paint0_radial_289_512)" fill-opacity="0.4"/>
<path d="M7.1681 6.93953C5.17908 9.88945 7.17027 11.0998 7.20353 13.5617C7.0488 6.44282 13.655 6.03504 9.16942 0C14.5516 2.93618 16.7539 7.58447 15.2862 13.049C17.406 11.6623 17.9772 7.91127 15.8566 3.99685C20.1788 7.34081 25.5335 24.8249 12.6124 24.8249C2.95941 24.8234 -1.80023 17.304 7.1681 6.93953Z" fill="url(#paint1_linear_289_512)"/>
<path d="M5.59094 9.92334C5.00819 12.7359 7.03119 16.4927 8.6804 17.9409C6.31541 11.4988 13.5976 8.39271 11.6159 3.58752C14.9598 6.3603 14.7964 12.8031 13.4104 16.4732C14.7147 13.2109 18.358 15.0322 17.977 9.86694C19.9884 15.4667 21.6759 24.6317 12.4184 24.6317C4.03428 24.6324 0.54861 16.9547 5.59094 9.92334Z" fill="url(#paint2_linear_289_512)"/>
<defs>
<radialGradient id="paint0_radial_289_512" cx="0" cy="0" r="1" gradientUnits="userSpaceOnUse" gradientTransform="translate(11.742 27.813) rotate(-0.62019) scale(8.80694 1.54999)">
<stop stop-color="#FFB829" stop-opacity="0.74"/>
<stop offset="1" stop-color="#1E1E2F" stop-opacity="0"/>
</radialGradient>
<linearGradient id="paint1_linear_289_512" x1="10.0253" y1="6.77403" x2="12.9747" y2="25.3439" gradientUnits="userSpaceOnUse">
<stop stop-color="#FF1F00"/>
<stop offset="1" stop-color="#FFEE00"/>
</linearGradient>
<linearGradient id="paint2_linear_289_512" x1="11.4034" y1="2.37073" x2="11.4034" y2="23.1144" gradientUnits="userSpaceOnUse">
<stop stop-color="#FF1F00"/>
<stop offset="1" stop-color="#FFEE00"/>
</linearGradient>
</defs>
</svg>
