<svg width="132" height="195" viewBox="0 0 132 195" fill="none" xmlns="http://www.w3.org/2000/svg">
<path opacity="0.4" d="M49.5393 51.5635L96.3392 24.0799L77.3999 74.9413L77.2066 75.4603L77.7426 75.5997L130.269 89.2584L80.9124 111.831L80.4088 112.061L80.6892 112.539L108.173 159.339L57.3114 140.399L56.7924 140.206L56.653 140.742L42.9943 193.268L20.422 143.912L20.1916 143.408L19.7141 143.689L-27.0859 171.172L-8.14654 120.311L-7.95328 119.792L-8.48927 119.652L-61.0157 105.994L-11.6591 83.4214L-11.1554 83.191L-11.4359 82.7135L-38.9195 35.9135L11.9419 54.8528L12.461 55.0461L12.6003 54.5101L26.259 1.98367L48.8314 51.3403L49.0617 51.844L49.5393 51.5635Z" stroke="#FEDA03"/>
</svg>
