<svg width="31" height="32" viewBox="0 0 31 32" fill="none" xmlns="http://www.w3.org/2000/svg">
<path fill-rule="evenodd" clip-rule="evenodd" d="M2.99579 0C1.34123 0 0 1.34123 0 2.99579V6.4856C0 8.14016 1.34123 9.48153 2.99579 9.48153H8.29617V29.0042C8.29617 30.6586 9.6374 32 11.292 32H14.7819C16.4363 32 17.7777 30.6586 17.7777 29.0042V6.51104C17.7777 6.50266 17.7777 6.49413 17.7777 6.4856V2.99579C17.7777 1.34123 16.4365 0 14.7819 0H11.292H2.99579Z" fill="#024BF4"/>
<path d="M25.4478 9.48153C28.066 9.48153 30.1885 7.35897 30.1885 4.74077C30.1885 2.12256 28.066 0 25.4478 0C22.8296 0 20.707 2.12256 20.707 4.74077C20.707 7.35897 22.8296 9.48153 25.4478 9.48153Z" fill="#024BF4"/>
</svg>
