<svg width="12" height="12" viewBox="0 0 12 12" fill="none" xmlns="http://www.w3.org/2000/svg">
<path d="M0 1C0 0.447716 0.447715 0 1 0H3.2C3.75228 0 4.2 0.447715 4.2 1V3.2C4.2 3.75228 3.75228 4.2 3.2 4.2H1C0.447716 4.2 0 3.75228 0 3.2V1Z" fill="#FF6868"/>
<path d="M0 8.5C0 7.94772 0.447715 7.5 1 7.5H3.2C3.75228 7.5 4.2 7.94772 4.2 8.5V10.7C4.2 11.2523 3.75228 11.7 3.2 11.7H1C0.447716 11.7 0 11.2523 0 10.7V8.5Z" fill="#D57DFF"/>
<path d="M7.5 1C7.5 0.447716 7.94772 0 8.5 0H10.7C11.2523 0 11.7 0.447715 11.7 1V3.2C11.7 3.75228 11.2523 4.2 10.7 4.2H8.5C7.94772 4.2 7.5 3.75228 7.5 3.2V1Z" fill="#17AAFF"/>
<path d="M7.5 8.5C7.5 7.94772 7.94772 7.5 8.5 7.5H10.7C11.2523 7.5 11.7 7.94772 11.7 8.5V10.7C11.7 11.2523 11.2523 11.7 10.7 11.7H8.5C7.94772 11.7 7.5 11.2523 7.5 10.7V8.5Z" fill="#63D709"/>
</svg>
