<svg width="14" height="15" viewBox="0 0 14 15" fill="none" xmlns="http://www.w3.org/2000/svg">
<path fill-rule="evenodd" clip-rule="evenodd" d="M7.53175 0.858016C6.43176 -0.064989 4.7918 0.0784891 3.86879 1.17848L1.29764 4.24266C0.374635 5.34266 0.518117 6.98262 1.61811 7.90563L2.99699 9.06265L0.554407 11.9736C-0.0135956 12.6505 0.0746984 13.6597 0.751618 14.2277C1.42854 14.7957 2.43775 14.7074 3.00575 14.0305L5.44833 11.1196L6.93919 12.3705C8.03919 13.2935 9.67915 13.1501 10.6022 12.0501L13.1733 8.9859C14.0963 7.8859 13.9528 6.24594 12.8528 5.32293L7.53175 0.858016ZM4.78804 1.94983C5.28505 1.35752 6.16811 1.28027 6.76041 1.77727L7.06688 2.03443L2.81391 7.10293C2.77276 7.15197 2.74079 7.20566 2.71783 7.26191L2.38945 6.98637C1.79715 6.48937 1.71989 5.60631 2.21689 5.01401L4.78804 1.94983ZM3.59327 7.9965L6.52614 10.4575L6.52631 10.4573L10.8971 5.24836L7.98613 2.80577L3.73316 7.87427C3.69201 7.92331 3.64468 7.96412 3.59327 7.9965ZM7.71054 11.4513L7.44539 11.2288L7.44556 11.2286L11.8164 6.01971L12.0815 6.24219C12.6738 6.73919 12.7511 7.62225 12.2541 8.21455L9.6829 11.2787C9.1859 11.871 8.30284 11.9483 7.71054 11.4513ZM1.47366 12.7449L3.65914 10.1404L4.27197 10.6546L2.0865 13.2592C1.9445 13.4284 1.69219 13.4505 1.52296 13.3085C1.35373 13.1665 1.33166 12.9142 1.47366 12.7449Z" fill="white"/>
</svg>
