<svg width="18" height="18" viewBox="0 0 18 18" fill="none" xmlns="http://www.w3.org/2000/svg">
<path d="M6.33594 10.864C6.33594 11.896 7.12794 12.728 8.11194 12.728H10.1199C10.9759 12.728 11.6719 12 11.6719 11.104C11.6719 10.128 11.2479 9.78397 10.6159 9.55997L7.39194 8.43997C6.75994 8.21597 6.33594 7.87197 6.33594 6.89597C6.33594 5.99997 7.03194 5.27197 7.88794 5.27197H9.89594C10.8799 5.27197 11.6719 6.10397 11.6719 7.13597" stroke="#0057FF" stroke-width="1.2" stroke-linecap="round" stroke-linejoin="round"/>
<path d="M9 4.19995V13.8" stroke="#0057FF" stroke-width="1.2" stroke-linecap="round" stroke-linejoin="round"/>
<path d="M9 17C13.4183 17 17 13.4183 17 9C17 4.58172 13.4183 1 9 1C4.58172 1 1 4.58172 1 9C1 13.4183 4.58172 17 9 17Z" stroke="#0057FF" stroke-width="1.2" stroke-linecap="round" stroke-linejoin="round"/>
</svg>
