<svg width="37" height="36" viewBox="0 0 37 36" fill="none" xmlns="http://www.w3.org/2000/svg">
<path d="M33.9117 20.2754L32.2935 18.6924L18.6621 32.3062L20.2979 33.9419C21.6698 35.3139 23.0945 35.9998 24.5016 35.9998C25.9087 35.9998 27.3334 35.3139 28.7053 33.9419L33.9117 28.7356C36.7083 25.9214 36.7083 23.0896 33.9117 20.2754Z" fill="#0057FF"/>
<path d="M15.7069 2.07109C12.9454 -0.690363 10.0432 -0.690363 7.28179 2.07109L2.0579 7.27739C-0.685965 10.0388 -0.685965 12.941 2.0579 15.7025L3.67607 17.3206L17.3074 3.68926L15.7069 2.07109Z" fill="#0057FF"/>
<path opacity="0.4" d="M35.2658 3.84744C32.9617 9.599 27.7026 17.1094 22.6898 22.0167C21.9686 17.4788 18.3453 13.9259 13.7722 13.2927C18.6971 8.26224 26.2603 2.93282 32.0295 0.611087C33.0496 0.224132 34.0698 0.523143 34.703 1.15634C35.3713 1.82472 35.6879 2.82728 35.2658 3.84744Z" fill="#0057FF"/>
<path d="M22.6899 22.017C21.8105 22.8789 20.931 23.6704 20.0868 24.3388L16.6218 27.1178C16.182 27.4344 15.7423 27.6982 15.2498 27.9093C15.2498 27.5751 15.2147 27.2409 15.1795 26.8892C14.986 25.4293 14.3176 24.0398 13.1392 22.8613C11.9255 21.6653 10.4832 20.9793 8.98819 20.7858C8.63642 20.7506 8.26705 20.7331 7.93286 20.7506C8.12634 20.2054 8.42535 19.6953 8.79472 19.2732L11.5386 15.8082C12.1894 14.9815 12.9457 14.1372 13.7724 13.293C18.3455 13.9262 21.9688 17.4791 22.6899 22.017Z" fill="#0057FF"/>
<path opacity="0.4" d="M15.2496 27.9087C15.2496 29.8435 14.5108 31.6903 13.1037 33.0799C12.0308 34.1704 10.5885 34.9091 8.82963 35.1202L4.52036 35.5951C2.16345 35.8589 0.140736 33.8362 0.404569 31.4617L0.879468 27.1348C1.3016 23.2829 4.52036 20.8204 7.9326 20.7501C8.26679 20.7325 8.63616 20.7501 8.98793 20.7852C10.483 20.9787 11.9253 21.6647 13.1389 22.8607C14.3174 24.0392 14.9857 25.4287 15.1792 26.8886C15.2144 27.2404 15.2496 27.5745 15.2496 27.9087Z" fill="#0057FF"/>
</svg>
