<svg width="38" height="36" viewBox="0 0 38 36" fill="none" xmlns="http://www.w3.org/2000/svg">
<path opacity="0.4" d="M6.87328 22.2534C5.25806 22.2534 3.76312 22.8205 2.57748 23.7655C0.996626 25.0199 0 26.9616 0 29.1267C0 30.4154 0.360851 31.6354 0.996629 32.6664C2.18227 34.6597 4.36453 36 6.87328 36C8.60879 36 10.1897 35.3642 11.3925 34.2817C11.9252 33.8349 12.3891 33.285 12.7499 32.6664C13.3857 31.6354 13.7466 30.4154 13.7466 29.1267C13.7466 25.3292 10.6708 22.2534 6.87328 22.2534ZM10.4302 28.3878L6.77019 31.7729C6.52962 31.9963 6.20313 32.1166 5.89383 32.1166C5.56735 32.1166 5.24087 31.9963 4.98312 31.7386L3.282 30.0375C2.78369 29.5391 2.78369 28.7143 3.282 28.2159C3.78031 27.7176 4.6051 27.7176 5.10342 28.2159L5.9282 29.0408L8.67753 26.4976C9.19302 26.0165 10.0178 26.0509 10.4989 26.5664C10.9801 27.0819 10.9457 27.9067 10.4302 28.3878Z" fill="#0057FF"/>
<path d="M31.7545 18.7312H35.2255V16.2568C35.2255 12.6999 32.3215 9.7959 28.7646 9.7959H9.03827C5.48135 9.7959 2.57739 12.6999 2.57739 16.2568V23.7659C3.76303 22.8208 5.25797 22.2537 6.87319 22.2537C10.6707 22.2537 13.7465 25.3295 13.7465 29.127C13.7465 30.4158 13.3856 31.6358 12.7498 32.6667C12.389 33.2853 11.9251 33.8352 11.3924 34.282H28.7646C32.3215 34.282 35.2255 31.378 35.2255 27.8211V25.7763H31.9607C30.1049 25.7763 28.4038 24.4188 28.2491 22.563C28.146 21.4805 28.5584 20.4667 29.2801 19.7621C29.9159 19.1092 30.7922 18.7312 31.7545 18.7312Z" fill="#0057FF"/>
<path opacity="0.4" d="M23.7987 3.2662V9.7958H9.03827C5.48135 9.7958 2.57739 12.6998 2.57739 16.2567V9.95049C2.57739 7.90569 3.83176 6.08419 5.7391 5.3625L19.3826 0.207535C21.5133 -0.582893 23.7987 0.980829 23.7987 3.2662Z" fill="#0057FF"/>
<path opacity="0.4" d="M37.0471 20.4836V24.0234C37.0471 24.9685 36.2911 25.7417 35.3288 25.776H31.9609C30.1051 25.776 28.404 24.4186 28.2493 22.5628C28.1462 21.4802 28.5586 20.4664 29.2803 19.7619C29.9161 19.1089 30.7924 18.731 31.7547 18.731H35.3288C36.2911 18.7653 37.0471 19.5385 37.0471 20.4836Z" fill="#0057FF"/>
<path d="M22.3382 18.3871H10.31C9.60547 18.3871 9.02124 17.8028 9.02124 17.0983C9.02124 16.3938 9.60547 15.8096 10.31 15.8096H22.3382C23.0427 15.8096 23.627 16.3938 23.627 17.0983C23.627 17.8028 23.0427 18.3871 22.3382 18.3871Z" fill="#0057FF"/>
</svg>
