<svg width="37" height="36" viewBox="0 0 37 36" fill="none" xmlns="http://www.w3.org/2000/svg">
<path opacity="0.6" d="M26.2875 29.5745C26.2692 29.5928 26.2692 29.6111 26.2692 29.6111C24.0908 31.9176 21.4731 34.096 18.3062 35.9998C18.3062 35.9998 2.12377 27.9086 0.18335 8.6875C5.87647 27.1215 18.3062 14.0328 18.3062 14.0328C30.6809 19.3415 26.5804 28.9338 26.2875 29.5745Z" fill="white"/>
<path opacity="0.4" d="M26.2873 29.5739C26.5802 28.9332 30.6808 19.341 18.306 14.0323C16.4754 3.04876 25.7565 1.10834 25.7565 1.10834L26.8365 0.888672H26.8548C30.04 1.63921 33.3168 2.90232 36.6119 4.87935C36.6119 4.87935 36.6118 18.6087 26.2873 29.5739Z" fill="white"/>
<path d="M26.8363 0.889301L25.7563 1.10897C25.7563 1.10897 16.4753 3.04939 18.3058 14.0329C18.3058 14.0329 5.87613 27.1216 0.183014 8.68759V8.66929C0.0731787 7.4611 0 6.17969 0 4.87998C0 4.87998 12.3015 -2.49728 26.8363 0.889301Z" fill="white"/>
</svg>
