<svg width="20" height="22" viewBox="0 0 20 22" fill="none" xmlns="http://www.w3.org/2000/svg">
<path d="M20.0014 10.7681C20.0014 10.0526 19.9452 9.33324 19.8253 8.62933H10.2031V12.6826H15.7133C15.4846 13.9898 14.7499 15.1463 13.6741 15.8811V18.5111H16.9615C18.8919 16.6778 20.0014 13.9705 20.0014 10.7681Z" fill="#4285F4"/>
<path d="M10.202 21.0521C12.9533 21.0521 15.2736 20.12 16.9641 18.5111L13.6768 15.8811C12.7622 16.5232 11.5814 16.8867 10.2058 16.8867C7.54441 16.8867 5.28788 15.0341 4.47823 12.5434H1.08594V15.2546C2.81769 18.8089 6.34492 21.0521 10.202 21.0521Z" fill="#34A853"/>
<path d="M4.4737 12.5434C4.04638 11.2361 4.04638 9.8206 4.4737 8.51335V5.80215H1.08516C-0.361719 8.77635 -0.361719 12.2804 1.08516 15.2546L4.4737 12.5434Z" fill="#FBBC04"/>
<path d="M10.202 4.16613C11.6564 4.14292 13.062 4.70759 14.1153 5.74411L17.0278 2.73898C15.1836 0.952142 12.7359 -0.0302316 10.202 0.000709315C6.34492 0.000709315 2.81769 2.24392 1.08594 5.80213L4.47448 8.51332C5.28038 6.01871 7.54066 4.16613 10.202 4.16613Z" fill="#EA4335"/>
</svg>
