<svg width="13" height="12" viewBox="0 0 13 12" fill="none" xmlns="http://www.w3.org/2000/svg">
<path d="M11.4995 6.71557C11.4119 7.62241 11.0563 8.48662 10.4741 9.2071C9.89201 9.92757 9.10749 10.4745 8.21237 10.7839C7.31726 11.0933 6.34858 11.1523 5.41967 10.9541C4.49076 10.7559 3.64006 10.3087 2.96709 9.66472C2.29413 9.02075 1.82674 8.20671 1.61961 7.31783C1.41249 6.42896 1.4742 5.50202 1.79752 4.64548C2.12084 3.78894 2.6924 3.03823 3.44532 2.48118C4.19824 1.92414 5.10138 1.5838 6.04906 1.5C5.49422 2.21828 5.22723 3.10327 5.29665 3.994C5.36606 4.88473 5.76727 5.72203 6.42731 6.35362C7.08734 6.98521 7.96235 7.36913 8.8932 7.43555C9.82404 7.50198 10.7489 7.24649 11.4995 6.71557V6.71557Z" stroke="white" stroke-width="1.5" stroke-linecap="round" stroke-linejoin="round"/>
</svg>
