<svg width="12" height="12" viewBox="0 0 12 12" fill="none" xmlns="http://www.w3.org/2000/svg">
<path d="M11 6.21557C10.9124 7.12241 10.5568 7.98662 9.97463 8.7071C9.3925 9.42757 8.60798 9.9745 7.71286 10.2839C6.81775 10.5933 5.84906 10.6523 4.92016 10.4541C3.99125 10.2559 3.14055 9.80868 2.46758 9.16472C1.79461 8.52075 1.32722 7.70671 1.1201 6.81783C0.912977 5.92896 0.974686 5.00202 1.29801 4.14548C1.62133 3.28894 2.19289 2.53823 2.94581 1.98118C3.69873 1.42414 4.60187 1.0838 5.54955 1C4.99471 1.71828 4.72772 2.60327 4.79714 3.494C4.86655 4.38473 5.26776 5.22203 5.9278 5.85362C6.58783 6.48521 7.46284 6.86913 8.39369 6.93555C9.32453 7.00198 10.2494 6.74649 11 6.21557Z" stroke="#49535B" stroke-opacity="0.96" stroke-width="1.5" stroke-linecap="round" stroke-linejoin="round"/>
</svg>
