<svg width="12" height="14" viewBox="0 0 12 14" fill="none" xmlns="http://www.w3.org/2000/svg">
<path d="M5.49229 0C5.46301 4.57042e-05 5.43379 0.00265669 5.40496 0.00780305C3.81221 0.290708 2.38047 1.15296 1.38552 2.42848C0.39057 3.704 -0.0972217 5.30256 0.0161028 6.91627C0.129427 8.52997 0.835852 10.0447 1.99931 11.1686C3.16277 12.2926 4.70096 12.9462 6.31762 13.0038C6.3997 13.0068 6.48178 13.0038 6.56316 13.0038C7.61298 13.0043 8.6475 12.7521 9.57926 12.2684C10.511 11.7847 11.3126 11.0838 11.9163 10.2249C11.9652 10.1509 11.9938 10.0652 11.9991 9.97668C12.0044 9.88811 11.9863 9.7997 11.9466 9.72036C11.9068 9.64101 11.8469 9.57354 11.7728 9.52474C11.6987 9.47593 11.613 9.44752 11.5245 9.44236C10.5252 9.3547 9.5594 9.03842 8.70184 8.51798C7.84427 7.99753 7.11786 7.28687 6.57876 6.4409C6.03965 5.59494 5.7023 4.63634 5.59277 3.6392C5.48323 2.64206 5.60446 1.63309 5.94707 0.690271C5.97622 0.614839 5.98692 0.533534 5.97829 0.453128C5.96966 0.372721 5.94195 0.29554 5.89746 0.228011C5.85296 0.160481 5.79298 0.104558 5.72251 0.0648978C5.65203 0.0252372 5.5731 0.00298706 5.49229 0Z" fill="black"/>
</svg>
