<svg width="21" height="17" viewBox="0 0 21 17" fill="none" xmlns="http://www.w3.org/2000/svg">
<path fill-rule="evenodd" clip-rule="evenodd" d="M10.2258 16C7.30221 16 4.80469 15.5577 4.80469 13.7868C4.80469 12.0159 7.28596 10.4742 10.2258 10.4742C13.1493 10.4742 15.6468 12.0015 15.6468 13.7715C15.6468 15.5415 13.1656 16 10.2258 16Z" stroke="#0057FF" stroke-width="1.2" stroke-linecap="round" stroke-linejoin="round"/>
<path fill-rule="evenodd" clip-rule="evenodd" d="M10.229 7.94919C12.1479 7.94919 13.704 6.39399 13.704 4.47505C13.704 2.5561 12.1479 1 10.229 1C8.31003 1 6.75392 2.5561 6.75392 4.47505C6.74852 6.38677 8.29198 7.94287 10.2046 7.94919H10.229Z" stroke="#0057FF" stroke-width="1.2" stroke-linecap="round" stroke-linejoin="round"/>
<path opacity="0.6" d="M15.9975 6.99516C17.114 6.69639 17.9372 5.67825 17.9372 4.46605C17.9372 3.20149 17.0409 2.14544 15.8477 1.90173" stroke="#0057FF" stroke-width="1.2" stroke-linecap="round" stroke-linejoin="round"/>
<path opacity="0.6" d="M16.5195 9.84082C18.1027 9.84082 19.4548 10.914 19.4548 11.8726C19.4548 12.4367 18.9882 13.0514 18.2805 13.2175" stroke="#0057FF" stroke-width="1.2" stroke-linecap="round" stroke-linejoin="round"/>
<path opacity="0.6" d="M4.46014 6.99516C3.34271 6.69639 2.51953 5.67825 2.51953 4.46605C2.51953 3.20149 3.41672 2.14544 4.60907 1.90173" stroke="#0057FF" stroke-width="1.2" stroke-linecap="round" stroke-linejoin="round"/>
<path opacity="0.6" d="M3.93529 9.84082C2.35211 9.84082 1 10.914 1 11.8726C1 12.4367 1.46665 13.0514 2.1752 13.2175" stroke="#0057FF" stroke-width="1.2" stroke-linecap="round" stroke-linejoin="round"/>
</svg>
