<svg width="60" height="50" viewBox="0 0 60 50" fill="none" xmlns="http://www.w3.org/2000/svg">
<mask id="mask0_4105_116" style="mask-type:alpha" maskUnits="userSpaceOnUse" x="0" y="0" width="60" height="50">
<rect width="60" height="50" fill="#C4C4C4"/>
</mask>
<g mask="url(#mask0_4105_116)">
<path d="M1.47063 45.4581L15.0856 12.7207L37.2792 34.9143L4.5419 48.5294C3.66343 48.8947 2.65135 48.6941 1.9786 48.0214C1.30585 47.3486 1.10529 46.3365 1.47063 45.4581Z" fill="url(#paint0_radial_4105_116)" stroke="url(#paint1_linear_4105_116)"/>
<g filter="url(#filter0_b_4105_116)">
<path fill-rule="evenodd" clip-rule="evenodd" d="M23.2146 26.785C29.635 33.2054 36.3268 36.923 38.1612 35.0886C39.592 33.6578 37.6449 29.2717 33.6722 24.3643L33.3626 23.9858C32.9446 23.4799 32.5056 22.9692 32.0472 22.4563L31.6997 22.0712C31.1145 21.4289 30.4995 20.7841 29.8575 20.1421C29.2155 19.5 28.5707 18.885 27.9284 18.2999L27.5433 17.9524C27.0304 17.494 26.5196 17.055 26.0137 16.637L25.6353 16.3274C20.7278 12.3546 16.3418 10.4076 14.9109 11.8384C13.0765 13.6728 16.7942 20.3646 23.2146 26.785Z" fill="url(#paint2_radial_4105_116)"/>
<path d="M37.8076 34.7351C37.5284 35.0143 36.9831 35.1578 36.0498 34.9771C35.1371 34.8003 33.9804 34.3342 32.6504 33.5953C29.9966 32.1209 26.7551 29.6184 23.5681 26.4314C20.3812 23.2445 17.8786 20.003 16.4043 17.3491C15.6654 16.0191 15.1993 14.8624 15.0225 13.9498C14.8417 13.0164 14.9853 12.4711 15.2645 12.192C15.4815 11.975 15.8562 11.838 16.4687 11.8765C17.0791 11.915 17.8561 12.1258 18.7734 12.5166C20.604 13.2963 22.8866 14.7457 25.3197 16.7153C25.32 16.7155 25.3203 16.7158 25.3207 16.716L25.6952 17.0224C25.6956 17.0227 25.6959 17.0229 25.6962 17.0232C26.1964 17.4365 26.7016 17.8707 27.2092 18.3244C27.2095 18.3247 27.2098 18.3249 27.2101 18.3252L27.5917 18.6695C27.592 18.6698 27.5922 18.67 27.5925 18.6703C28.2288 19.2499 28.8676 19.8593 29.5039 20.4956C30.1403 21.1319 30.7496 21.7708 31.3293 22.407C31.3295 22.4073 31.3298 22.4076 31.3301 22.4079L31.6744 22.7895C31.6746 22.7897 31.6748 22.7899 31.675 22.7902C32.1288 23.2979 32.5631 23.8032 32.9765 24.3035C32.9767 24.3038 32.9769 24.304 32.9772 24.3043L33.2836 24.6789C33.2838 24.6792 33.2841 24.6796 33.2843 24.6799C35.2539 27.113 36.7033 29.3956 37.483 31.2261C37.8737 32.1435 38.0846 32.9205 38.123 33.5309C38.1616 34.1433 38.0246 34.5181 37.8076 34.7351Z" stroke="url(#paint3_radial_4105_116)"/>
</g>
<path fill-rule="evenodd" clip-rule="evenodd" d="M49.7953 9.13462L43.7329 9.38807L47.2106 15.6927L49.7953 9.13462Z" fill="#FFDAFE"/>
<path fill-rule="evenodd" clip-rule="evenodd" d="M22.5912 1.26144L19.2843 8.86465L25.4598 8.62986L22.5912 1.26144Z" fill="#5B72F2"/>
<circle cx="35.9333" cy="2.90628" r="2.05505" transform="rotate(45 35.9333 2.90628)" fill="#E965E2"/>
<circle cx="35.3259" cy="28.7486" r="2.05505" transform="rotate(45 35.3259 28.7486)" fill="#E965E2"/>
<path fill-rule="evenodd" clip-rule="evenodd" d="M28.8251 12.6325C28.1924 12.2708 27.9721 11.465 28.3329 10.8317V10.8317C28.6945 10.1971 29.5024 9.97629 30.1365 10.3389L30.3062 10.4359L30.5856 10.6001L30.8511 10.7589L31.1069 10.9148C32.9 12.0193 34.1545 13.0439 34.9751 14.247L35.0368 14.3392L35.0649 14.3826L35.1388 14.3704C37.8091 13.94 39.95 14.8783 41.4167 16.9257L41.4849 17.0225C42.2925 18.1856 42.9704 20.8406 43.3285 22.4587C43.4898 23.1875 42.9919 23.885 42.2538 23.9966V23.9966C41.5401 24.1045 40.8702 23.6218 40.7222 22.9153C40.4312 21.5262 39.9106 19.3879 39.3146 18.5295C38.5116 17.373 37.4746 16.8079 36.0267 16.9192L35.9047 16.9301L35.9061 16.9582C35.9294 17.7979 35.7193 18.6605 35.2576 19.5295L35.201 19.6338L35.0545 19.8933C33.2401 23.0476 31.1633 24.469 29.1182 23.9517C27.3267 23.4985 26.1696 21.5427 26.4454 19.8013C26.8144 17.4713 28.4701 16.0836 30.9072 15.3227C30.9636 15.3051 31.0243 15.2871 31.0884 15.269L31.2905 15.2139C31.3609 15.1954 31.434 15.1767 31.5091 15.1581L31.7398 15.1023L31.9782 15.0472L32.1814 15.0019L32.1757 14.996C31.6173 14.4389 30.8394 13.8607 29.8377 13.2367L29.7212 13.1645L29.4836 13.0197L29.2353 12.8712L28.9722 12.7167L28.8251 12.6325ZM33.2095 17.5094L33.2134 17.4859L32.7074 17.5939L32.4121 17.66L32.138 17.7249L31.9721 17.7668L31.8233 17.8069L31.6946 17.8448C30.1146 18.3381 29.2355 19.0749 29.055 20.2146C28.9848 20.6581 29.3566 21.2866 29.7661 21.3902C30.2356 21.5089 30.9319 21.1483 31.7697 20.0812L31.8875 19.9276C31.9073 19.9013 31.9272 19.8745 31.9471 19.8474L32.0676 19.6799C32.1282 19.5938 32.1895 19.5041 32.2515 19.4107L32.3761 19.2192C32.397 19.1864 32.418 19.1533 32.439 19.1197L32.566 18.9133L32.6945 18.6969C32.716 18.66 32.7376 18.6226 32.7593 18.5848L32.8899 18.353C33.0493 18.0654 33.156 17.7852 33.2095 17.5094Z" fill="white"/>
</g>
<defs>
<filter id="filter0_b_4105_116" x="0.851218" y="-2.22129" width="51.3696" height="51.3698" filterUnits="userSpaceOnUse" color-interpolation-filters="sRGB">
<feFlood flood-opacity="0" result="BackgroundImageFix"/>
<feGaussianBlur in="BackgroundImage" stdDeviation="6.7957"/>
<feComposite in2="SourceAlpha" operator="in" result="effect1_backgroundBlur_4105_116"/>
<feBlend mode="normal" in="SourceGraphic" in2="effect1_backgroundBlur_4105_116" result="shape"/>
</filter>
<radialGradient id="paint0_radial_4105_116" cx="0" cy="0" r="1" gradientUnits="userSpaceOnUse" gradientTransform="translate(14.4921 15.9778) rotate(49.4017) scale(30.3397 32.4821)">
<stop stop-color="#F065E2"/>
<stop offset="1" stop-color="#3748FA"/>
</radialGradient>
<linearGradient id="paint1_linear_4105_116" x1="0.610826" y1="17.073" x2="5.02603" y2="43.157" gradientUnits="userSpaceOnUse">
<stop stop-color="white" stop-opacity="0.29535"/>
<stop offset="1" stop-color="white" stop-opacity="0.01"/>
</linearGradient>
<radialGradient id="paint2_radial_4105_116" cx="0" cy="0" r="1" gradientUnits="userSpaceOnUse" gradientTransform="translate(16.6871 23.4635) rotate(34.3143) scale(21.4524)">
<stop stop-color="white" stop-opacity="0.801593"/>
<stop offset="1" stop-color="#889AFF" stop-opacity="0.301884"/>
</radialGradient>
<radialGradient id="paint3_radial_4105_116" cx="0" cy="0" r="1" gradientUnits="userSpaceOnUse" gradientTransform="translate(16.7757 13.7162) rotate(70.2944) scale(13.9385 21.085)">
<stop stop-color="white" stop-opacity="0.973411"/>
<stop offset="1" stop-color="white" stop-opacity="0.01"/>
</radialGradient>
</defs>
</svg>
