<svg width="23" height="20" viewBox="0 0 23 20" fill="none" xmlns="http://www.w3.org/2000/svg">
<path d="M15.7773 10.4199H21.1008C21.01 15.7207 19.9657 16.5948 16.7081 18.5244C16.3335 18.7514 16.2087 19.2281 16.4357 19.614C16.6627 19.9886 17.1394 20.1135 17.5253 19.8865C21.3619 17.6163 22.7013 16.2315 22.7013 9.62538V3.5074C22.7013 1.56643 21.1235 0 19.1939 0H15.7887C13.791 0 12.2813 1.50968 12.2813 3.5074V6.91262C12.27 8.91034 13.7796 10.4199 15.7773 10.4199Z" fill="#0057FF"/>
<path d="M3.49608 10.4199H8.81957C8.72876 15.7207 7.6845 16.5948 4.42684 18.5244C4.05227 18.7514 3.92741 19.2281 4.15443 19.614C4.38144 19.9886 4.85817 20.1135 5.24409 19.8865C9.08064 17.6163 10.42 16.2315 10.42 9.62538V3.5074C10.42 1.56643 8.84227 0 6.91265 0H3.50743C1.50971 0 6.35839e-05 1.50968 6.35839e-05 3.5074V6.91262C-0.0112871 8.91034 1.49836 10.4199 3.49608 10.4199Z" fill="#0057FF"/>
</svg>
