<svg width="14" height="13" viewBox="0 0 14 13" fill="none" xmlns="http://www.w3.org/2000/svg">
<path fill-rule="evenodd" clip-rule="evenodd" d="M6.99892 1.85546C8.11084 1.2162 9.58792 0.0837261 10.864 0.455591C13.6396 1.26959 14.5013 4.02126 13.7306 6.21078C12.5414 9.6496 7.46256 12.2147 7.24715 12.3223C7.17056 12.3608 7.08577 12.3801 7.00097 12.3801C6.91618 12.3801 6.83206 12.3615 6.75548 12.3235C6.54143 12.2172 1.49952 9.69002 0.270667 6.21141C-0.500699 4.02126 0.357514 1.26834 3.13047 0.455591C4.43249 0.0725329 5.85145 1.19693 6.99892 1.85546ZM9.89359 2.57851C10.8257 2.85275 11.4787 3.60332 11.5587 4.49069C11.5813 4.74752 11.3714 4.97262 11.0889 4.99315C11.0746 4.99439 11.0609 4.99501 11.0465 4.99501C10.7819 4.99501 10.5576 4.81032 10.5357 4.56656C10.4906 4.0554 10.1145 3.62384 9.57903 3.46651C9.30892 3.38691 9.16121 3.12387 9.24805 2.87949C9.33627 2.63448 9.6228 2.5014 9.89359 2.57851Z" fill="#F01463"/>
</svg>
