<svg width="18" height="16" viewBox="0 0 18 16" fill="none" xmlns="http://www.w3.org/2000/svg">
<path d="M5.65196 0.000130242C6.21895 0.0162644 6.76794 0.108894 7.29984 0.278155H7.35294C7.38894 0.294155 7.41594 0.311839 7.43394 0.327838C7.63283 0.387627 7.82093 0.454994 8.00093 0.547624L8.34293 0.69078C8.47793 0.758147 8.63993 0.883618 8.72992 0.934986C8.81992 0.984669 8.91892 1.03604 8.99992 1.09414C9.99981 0.379206 11.2139 -0.00815621 12.4649 0.000130242C13.0328 0.000130242 13.5998 0.0752108 14.1389 0.244471C17.4607 1.25498 18.6577 4.66545 17.6578 7.64645C17.0908 9.1698 16.1638 10.5601 14.9498 11.6961C13.2119 13.2708 11.3048 14.6687 9.25192 15.8728L9.02692 16L8.79292 15.8644C6.73284 14.6687 4.81496 13.2708 3.06088 11.6877C1.8549 10.5517 0.927005 9.1698 0.351011 7.64645C-0.665978 4.66545 0.53101 1.25498 3.88887 0.226787C4.14987 0.142578 4.41897 0.0836317 4.68897 0.0507902H4.79696C5.04986 0.0162644 5.30096 0.000130242 5.55296 0.000130242H5.65196ZM13.6709 2.66127C13.3019 2.54254 12.8969 2.72864 12.7619 3.08232C12.6359 3.436 12.8339 3.82336 13.2119 3.94883C13.7888 4.15093 14.1749 4.68229 14.1749 5.27091V5.29702C14.1578 5.48986 14.2199 5.67596 14.3459 5.81912C14.4719 5.96227 14.6609 6.04564 14.8589 6.06332C15.2279 6.05406 15.5429 5.77701 15.5699 5.42249V5.32228C15.5969 4.14251 14.8328 3.0739 13.6709 2.66127Z" fill="#FF2775"/>
</svg>
