<svg width="18" height="18" viewBox="0 0 18 18" fill="none" xmlns="http://www.w3.org/2000/svg">
<path d="M15.514 3.22384H15.1541L12.1125 0.182227C11.8695 -0.0607423 11.4735 -0.0607423 11.2216 0.182227C10.9786 0.425196 10.9786 0.821146 11.2216 1.07311L13.3723 3.22384H4.62541L6.77614 1.07311C7.01911 0.830145 7.01911 0.434195 6.77614 0.182227C6.53317 -0.0607423 6.13722 -0.0607423 5.88525 0.182227L2.85264 3.22384H2.49268C1.68279 3.22384 0 3.22384 0 5.52755C0 6.40044 0.179977 6.97636 0.557929 7.35432C0.773902 7.57929 1.03487 7.69627 1.31383 7.75926C1.5748 7.82226 1.85376 7.83125 2.12373 7.83125H15.874C16.1529 7.83125 16.4139 7.81326 16.6659 7.75926C17.4218 7.57929 17.9977 7.03936 17.9977 5.52755C17.9977 3.22384 16.3149 3.22384 15.514 3.22384Z" fill="#FF8731"/>
<path d="M15.345 9.00116H2.58464C2.02671 9.00116 1.60376 9.4961 1.69375 10.045L2.44965 14.6704C2.70162 16.2182 3.37654 18 6.37316 18H11.4215C14.4541 18 14.9941 16.4792 15.318 14.7784L16.2269 10.072C16.3349 9.51409 15.9119 9.00116 15.345 9.00116ZM7.74998 14.8054C7.74998 15.1564 7.47102 15.4353 7.12906 15.4353C6.7781 15.4353 6.49914 15.1564 6.49914 14.8054V11.8358C6.49914 11.4938 6.7781 11.2059 7.12906 11.2059C7.47102 11.2059 7.74998 11.4938 7.74998 11.8358V14.8054ZM11.6015 14.8054C11.6015 15.1564 11.3225 15.4353 10.9716 15.4353C10.6296 15.4353 10.3417 15.1564 10.3417 14.8054V11.8358C10.3417 11.4938 10.6296 11.2059 10.9716 11.2059C11.3225 11.2059 11.6015 11.4938 11.6015 11.8358V14.8054Z" fill="#FF8731"/>
</svg>
