<svg width="21" height="20" viewBox="0 0 21 20" fill="none" xmlns="http://www.w3.org/2000/svg">
<path d="M19.9007 17.2037C19.7459 17.3584 19.5499 17.4307 19.3538 17.4307C19.1577 17.4307 18.9617 17.3584 18.8069 17.2037L13.6992 12.096L14.2461 11.5491L14.793 11.0022L19.9007 16.1099C20.1999 16.4091 20.1999 16.9044 19.9007 17.2037Z" fill="#0057FF"/>
<path d="M5.38475 7.13271L11.3695 13.1175C11.7719 13.5199 11.7719 14.17 11.3695 14.5724L10.4409 15.5114C9.60504 16.3369 8.28427 16.3369 7.45878 15.5114L2.98052 11.0331C2.16535 10.218 2.16535 8.88687 2.98052 8.06138L3.91951 7.12239C4.32193 6.73029 4.98232 6.73029 5.38475 7.13271Z" fill="#0057FF"/>
<path d="M17.8902 8.07171L13.9588 11.9928C13.546 12.4055 12.8857 12.4055 12.4729 11.9928L6.50878 6.02863C6.09603 5.61589 6.09603 4.9555 6.50878 4.54275L10.4402 0.611376C11.2553 -0.203792 12.5864 -0.203792 13.4119 0.611376L17.8902 5.08964C18.7053 5.91513 18.7053 7.2359 17.8902 8.07171Z" fill="#0057FF"/>
<path d="M6.96504 20H0.773893C0.350832 20 0 19.6492 0 19.2261C0 18.803 0.350832 18.4522 0.773893 18.4522H6.96504C7.3881 18.4522 7.73893 18.803 7.73893 19.2261C7.73893 19.6492 7.3881 20 6.96504 20Z" fill="#0057FF"/>
</svg>
