<svg width="21" height="20" viewBox="0 0 21 20" fill="none" xmlns="http://www.w3.org/2000/svg">
<path d="M8.74282 0.442389C9.43264 -0.147463 10.5624 -0.147463 11.2622 0.442389L12.8418 1.80205C13.1417 2.06198 13.7016 2.27193 14.1015 2.27193H15.8011C16.8608 2.27193 17.7306 3.14171 17.7306 4.20145V5.90102C17.7306 6.29093 17.9405 6.86079 18.2005 7.16071L19.5601 8.74032C20.15 9.43014 20.15 10.5599 19.5601 11.2597L18.2005 12.8393C17.9405 13.1392 17.7306 13.6991 17.7306 14.099V15.7986C17.7306 16.8583 16.8608 17.7281 15.8011 17.7281H14.1015C13.7116 17.7281 13.1417 17.938 12.8418 18.198L11.2622 19.5576C10.5724 20.1475 9.44264 20.1475 8.74282 19.5576L7.16321 18.198C6.86329 17.938 6.30343 17.7281 5.90352 17.7281H4.17396C3.11422 17.7281 2.24444 16.8583 2.24444 15.7986V14.089C2.24444 13.6991 2.03449 13.1392 1.78455 12.8393L0.434891 11.2497C-0.144964 10.5599 -0.144964 9.44014 0.434891 8.75031L1.78455 7.16071C2.03449 6.86079 2.24444 6.30092 2.24444 5.91102V4.19145C2.24444 3.13172 3.11422 2.26193 4.17396 2.26193H5.90352C6.29343 2.26193 6.86329 2.05199 7.16321 1.79205L8.74282 0.442389Z" fill="#0057FF"/>
<path d="M8.78194 13.1594C8.58199 13.1594 8.39204 13.0794 8.25208 12.9395L5.83268 10.5201C5.54275 10.2301 5.54275 9.75027 5.83268 9.46034C6.12261 9.17041 6.60249 9.17041 6.89241 9.46034L8.78194 11.3499L13.0809 7.05094C13.3708 6.76101 13.8507 6.76101 14.1406 7.05094C14.4305 7.34087 14.4305 7.82075 14.1406 8.11068L9.31181 12.9395C9.17184 13.0794 8.98189 13.1594 8.78194 13.1594Z" fill="white"/>
</svg>
