<svg width="12" height="11" viewBox="0 0 12 11" fill="none" xmlns="http://www.w3.org/2000/svg">
<path d="M4.80855 0.243314C5.18795 -0.0811047 5.8093 -0.0811047 6.1942 0.243314L7.06299 0.991127C7.22794 1.13409 7.53587 1.24956 7.75581 1.24956H8.69058C9.27343 1.24956 9.75181 1.72794 9.75181 2.3108V3.24556C9.75181 3.46001 9.86728 3.77343 10.0102 3.93839L10.7581 4.80717C11.0825 5.18658 11.0825 5.80792 10.7581 6.19283L10.0102 7.06161C9.86728 7.22657 9.75181 7.53449 9.75181 7.75444V8.6892C9.75181 9.27206 9.27343 9.75044 8.69058 9.75044H7.75581C7.54137 9.75044 7.22794 9.86591 7.06299 10.0089L6.1942 10.7567C5.8148 11.0811 5.19345 11.0811 4.80855 10.7567L3.93977 10.0089C3.77481 9.86591 3.46688 9.75044 3.24694 9.75044H2.29568C1.71282 9.75044 1.23444 9.27206 1.23444 8.6892V7.74894C1.23444 7.53449 1.11897 7.22657 0.981505 7.06161L0.23919 6.18733C-0.0797301 5.80792 -0.0797301 5.19208 0.23919 4.81267L0.981505 3.93839C1.11897 3.77343 1.23444 3.46551 1.23444 3.25106V2.3053C1.23444 1.72244 1.71282 1.24406 2.29568 1.24406H3.24694C3.46139 1.24406 3.77481 1.12859 3.93977 0.985629L4.80855 0.243314Z" fill="#076BFF"/>
<path d="M3.50488 5.49452L4.83005 6.82518L7.48589 4.16385" stroke="white" stroke-width="1.5" stroke-linecap="round" stroke-linejoin="round"/>
</svg>
