<svg width="17" height="16" viewBox="0 0 17 16" fill="none" xmlns="http://www.w3.org/2000/svg">
<path d="M6.99425 0.353912C7.54611 -0.117971 8.44989 -0.117971 9.00975 0.353912L10.2734 1.44164C10.5134 1.64959 10.9613 1.81755 11.2812 1.81755H12.6408C13.4886 1.81755 14.1845 2.51337 14.1845 3.36116V4.72082C14.1845 5.03274 14.3524 5.48863 14.5604 5.72857L15.6481 6.99225C16.12 7.54411 16.12 8.44789 15.6481 9.00775L14.5604 10.2714C14.3524 10.5114 14.1845 10.9593 14.1845 11.2792V12.6388C14.1845 13.4866 13.4886 14.1825 12.6408 14.1825H11.2812C10.9693 14.1825 10.5134 14.3504 10.2734 14.5584L9.00975 15.6461C8.45789 16.118 7.55411 16.118 6.99425 15.6461L5.73057 14.5584C5.49063 14.3504 5.04274 14.1825 4.72282 14.1825H3.33917C2.49138 14.1825 1.79555 13.4866 1.79555 12.6388V11.2712C1.79555 10.9593 1.62759 10.5114 1.42764 10.2714L0.347913 8.99975C-0.115971 8.44789 -0.115971 7.55211 0.347913 7.00025L1.42764 5.72857C1.62759 5.48863 1.79555 5.04074 1.79555 4.72882V3.35316C1.79555 2.50537 2.49138 1.80955 3.33917 1.80955H4.72282C5.03474 1.80955 5.49063 1.64159 5.73057 1.43364L6.99425 0.353912Z" fill="#FEDA03"/>
<path d="M5.09863 7.992L7.02615 9.92752L10.8892 6.05649" stroke="#041226" stroke-width="1.5" stroke-linecap="round" stroke-linejoin="round"/>
</svg>
