<svg width="20" height="20" viewBox="0 0 20 20" fill="none" xmlns="http://www.w3.org/2000/svg">
<path d="M8.74119 0.442389C9.43089 -0.147463 10.5604 -0.147463 11.2601 0.442389L12.8394 1.80205C13.1393 2.06198 13.699 2.27193 14.0989 2.27193H15.7981C16.8576 2.27193 17.7273 3.14171 17.7273 4.20145V5.90102C17.7273 6.29093 17.9372 6.86078 18.1971 7.16071L19.5565 8.74032C20.1462 9.43014 20.1462 10.5599 19.5565 11.2597L18.1971 12.8393C17.9372 13.1392 17.7273 13.6991 17.7273 14.099V15.7986C17.7273 16.8583 16.8576 17.7281 15.7981 17.7281H14.0989C13.709 17.7281 13.1393 17.938 12.8394 18.198L11.2601 19.5576C10.5704 20.1475 9.44088 20.1475 8.74119 19.5576L7.16188 18.198C6.86201 17.938 6.30225 17.7281 5.90243 17.7281H4.17318C3.11364 17.7281 2.24402 16.8583 2.24402 15.7986V14.089C2.24402 13.6991 2.03411 13.1392 1.78422 12.8393L0.43481 11.2497C-0.144937 10.5599 -0.144937 9.44014 0.43481 8.75031L1.78422 7.16071C2.03411 6.86078 2.24402 6.30092 2.24402 5.91102V4.19145C2.24402 3.13172 3.11364 2.26193 4.17318 2.26193H5.90243C6.29226 2.26193 6.86201 2.05199 7.16188 1.79205L8.74119 0.442389Z" fill="#FEDA03"/>
<path d="M6.11133 9.8219L8.70034 12.4216L13.8891 7.22217" stroke="#041226" stroke-width="1.5" stroke-linecap="round" stroke-linejoin="round"/>
</svg>
