<svg width="19" height="18" viewBox="0 0 19 18" fill="none" xmlns="http://www.w3.org/2000/svg">
<path d="M7.86853 0.39815C8.48938 -0.132717 9.50612 -0.132717 10.136 0.39815L11.5576 1.62184C11.8275 1.85579 12.3314 2.04474 12.6913 2.04474H14.2209C15.1747 2.04474 15.9575 2.82754 15.9575 3.7813V5.31092C15.9575 5.66183 16.1465 6.17471 16.3804 6.44464L17.6041 7.86628C18.135 8.48713 18.135 9.50387 17.6041 10.1337L16.3804 11.5554C16.1465 11.8253 15.9575 12.3292 15.9575 12.6891V14.2187C15.9575 15.1725 15.1747 15.9553 14.2209 15.9553H12.6913C12.3404 15.9553 11.8275 16.1442 11.5576 16.3782L10.136 17.6019C9.51512 18.1327 8.49838 18.1327 7.86853 17.6019L6.44689 16.3782C6.17696 16.1442 5.67308 15.9553 5.31317 15.9553H3.75656C2.8028 15.9553 2.02 15.1725 2.02 14.2187V12.6801C2.02 12.3292 1.83104 11.8253 1.6061 11.5554L0.391402 10.1247C-0.130467 9.50387 -0.130467 8.49613 0.391402 7.87528L1.6061 6.44464C1.83104 6.17471 2.02 5.67083 2.02 5.31992V3.77231C2.02 2.81855 2.8028 2.03574 3.75656 2.03574H5.31317C5.66408 2.03574 6.17696 1.84679 6.44689 1.61285L7.86853 0.39815Z" fill="#F01463"/>
<path d="M5.73605 8.99093L7.90451 11.1684L12.2504 6.81348" stroke="white" stroke-width="1.5" stroke-linecap="round" stroke-linejoin="round"/>
</svg>
