<svg width="23" height="18" viewBox="0 0 23 18" fill="none" xmlns="http://www.w3.org/2000/svg">
<path fill-rule="evenodd" clip-rule="evenodd" d="M22.1538 2.13058C21.3393 2.49189 20.4621 2.7362 19.5433 2.84677C20.4817 2.28359 21.2024 1.39381 21.5413 0.333024C20.6628 0.853775 19.6906 1.2318 18.6544 1.43496C17.8255 0.551611 16.6447 0 15.3375 0C12.8273 0 10.7915 2.03415 10.7915 4.54404C10.7915 4.90149 10.8332 5.24737 10.9101 5.5804C7.13307 5.39139 3.78484 3.58097 1.54313 0.831917C1.15083 1.50311 0.927964 2.28359 0.927964 3.11679C0.927964 4.69319 1.73081 6.08443 2.94941 6.89835C2.20392 6.87521 1.50273 6.67076 0.891471 6.33002C0.891471 6.34931 0.891471 6.3686 0.891471 6.38789C0.891471 8.58919 2.45676 10.4253 4.53686 10.8432C4.15499 10.9474 3.75487 11.0026 3.33911 11.0026C3.04716 11.0026 2.76174 10.9744 2.48413 10.9204C3.0628 12.7256 4.74148 14.0397 6.73035 14.077C5.17418 15.2947 3.21399 16.0211 1.08436 16.0211C0.71813 16.0211 0.355807 16.0006 0 15.9581C2.01102 17.2478 4.40001 18 6.96755 18C15.3271 18 19.8991 11.0759 19.8991 5.07122C19.8991 4.87321 19.8939 4.67905 19.8861 4.48361C20.7736 3.84327 21.5452 3.04222 22.1538 2.13187V2.13058Z" fill="#387CFF"/>
</svg>
