<svg width="34" height="34" viewBox="0 0 34 34" fill="none" xmlns="http://www.w3.org/2000/svg">
<circle cx="17" cy="17" r="17" fill="#2AA3EF"/>
<path fill-rule="evenodd" clip-rule="evenodd" d="M23.9761 12.6749C23.4632 12.9023 22.9109 13.0562 22.3324 13.1258C22.9232 12.7712 23.377 12.211 23.5904 11.5431C23.0373 11.8709 22.4251 12.109 21.7727 12.2369C21.2508 11.6807 20.5073 11.3334 19.6843 11.3334C18.1038 11.3334 16.822 12.6141 16.822 14.1944C16.822 14.4195 16.8482 14.6373 16.8967 14.847C14.5185 14.7279 12.4104 13.5881 10.9989 11.8572C10.7519 12.2798 10.6116 12.7712 10.6116 13.2958C10.6116 14.2883 11.1171 15.1643 11.8844 15.6768C11.415 15.6622 10.9735 15.5335 10.5886 15.3189C10.5886 15.3311 10.5886 15.3432 10.5886 15.3554C10.5886 16.7414 11.5742 17.8975 12.8839 18.1606C12.6434 18.2262 12.3915 18.261 12.1297 18.261C11.9459 18.261 11.7662 18.2432 11.5914 18.2092C11.9558 19.3458 13.0127 20.1732 14.265 20.1967C13.2852 20.9633 12.051 21.4208 10.7101 21.4208C10.4795 21.4208 10.2514 21.4078 10.0273 21.3811C11.2935 22.1931 12.7977 22.6667 14.4143 22.6667C19.6777 22.6667 22.5564 18.3071 22.5564 14.5264C22.5564 14.4017 22.5531 14.2794 22.5482 14.1564C23.107 13.7532 23.5928 13.2488 23.9761 12.6757V12.6749Z" fill="white"/>
</svg>
