<svg width="16" height="14" viewBox="0 0 16 14" fill="none" xmlns="http://www.w3.org/2000/svg">
<path d="M15 1.0064C14.3906 1.43625 13.7159 1.76501 13.0018 1.98004C12.6186 1.53936 12.1092 1.22702 11.5427 1.08526C10.9761 0.943501 10.3797 0.97916 9.83405 1.18741C9.28842 1.39567 8.81992 1.76647 8.4919 2.24967C8.16388 2.73287 7.99217 3.30516 8 3.88913V4.52549C6.88168 4.55449 5.77354 4.30646 4.77428 3.8035C3.77502 3.30054 2.91566 2.55826 2.27273 1.64276C2.27273 1.64276 -0.272727 7.37004 5.45455 9.91549C4.14397 10.8051 2.58274 11.2512 1 11.1882C6.72727 14.37 13.7273 11.1882 13.7273 3.87004C13.7267 3.69278 13.7096 3.51596 13.6764 3.34185C14.3258 2.70135 14.7842 1.89267 15 1.0064V1.0064Z" stroke="#1D9BF0" stroke-width="1.5" stroke-linecap="round" stroke-linejoin="round"/>
</svg>
