<svg width="16" height="16" viewBox="0 0 16 16" fill="none" xmlns="http://www.w3.org/2000/svg">
<path d="M8 15C11.866 15 15 11.866 15 8C15 4.13401 11.866 1 8 1C4.13401 1 1 4.13401 1 8C1 11.866 4.13401 15 8 15Z" stroke="#0057FF" stroke-linecap="round" stroke-linejoin="round"/>
<path d="M5.1968 1.70001H5.8968C4.5318 5.78801 4.5318 10.212 5.8968 14.3H5.1968" stroke="#0057FF" stroke-linecap="round" stroke-linejoin="round"/>
<path d="M10.0996 1.70001C11.4646 5.78801 11.4646 10.212 10.0996 14.3" stroke="#0057FF" stroke-linecap="round" stroke-linejoin="round"/>
<path d="M1.69727 10.7999V10.0999C5.78527 11.4649 10.2093 11.4649 14.2973 10.0999V10.7999" stroke="#0057FF" stroke-linecap="round" stroke-linejoin="round"/>
<path d="M1.69727 5.89997C5.78527 4.53497 10.2093 4.53497 14.2973 5.89997" stroke="#0057FF" stroke-linecap="round" stroke-linejoin="round"/>
</svg>
